<svg id="Layer_1" data-name="Layer 1" xmlns="http://www.w3.org/2000/svg" viewBox="0 0 91.06 101.81"><defs><style>.cls-1{fill:#35727f;}.cls-2{fill:#010101;}</style></defs><title>icons</title><circle class="cls-1" cx="45.27" cy="45.93" r="42.59"/><path class="cls-2" d="M91.19,45.53A45.53,45.53,0,1,0,33.48,89.39l12.19,12.42L57.85,89.39A45.6,45.6,0,0,0,91.19,45.53ZM45.67,87.06A41.53,41.53,0,1,1,87.19,45.53,41.58,41.58,0,0,1,45.67,87.06Z"/><path class="cls-2" d="M85.35,65.05H5.19a.75.75,0,0,1,0-1.5H85.35a.75.75,0,0,1,0,1.5Z"/><path class="cls-2" d="M70.14,48.73H40.81a.75.75,0,0,1-.64-1.15c3.38-5.43,8.1-7.84,15.3-7.84a18.43,18.43,0,0,1,15.27,7.8.75.75,0,0,1-.61,1.19Zm-27.92-1.5H68.6a16.64,16.64,0,0,0-13.12-6C49.3,41.24,45.26,43,42.22,47.23Z"/><path class="cls-2" d="M28.62,55.53a.75.75,0,0,1-.53-.22,3.58,3.58,0,0,1,4.69-5.4.75.75,0,0,1,0,1.21,12.18,12.18,0,0,0-3.49,4,.75.75,0,0,1-.55.38Zm2-4.83a2.09,2.09,0,0,0-2,2.64,13.62,13.62,0,0,1,2.27-2.62Z"/><path class="cls-2" d="M40.81,59.41a.75.75,0,0,1-.75-.75V48a.75.75,0,0,1,1.5,0V58.66A.75.75,0,0,1,40.81,59.41Z"/><path class="cls-2" d="M59.83,59.41a.75.75,0,0,1-.75-.75V41.27a.75.75,0,0,1,1.5,0V58.66A.75.75,0,0,1,59.83,59.41Z"/><path class="cls-2" d="M57.06,51.95h-2a.75.75,0,0,1,0-1.5h2a.75.75,0,0,1,0,1.5Z"/><path class="cls-2" d="M34.29,63.49a4.83,4.83,0,1,1,4.83-4.83A4.84,4.84,0,0,1,34.29,63.49Zm0-8.17a3.33,3.33,0,1,0,3.33,3.33A3.34,3.34,0,0,0,34.29,55.32Z"/><path class="cls-2" d="M66.89,63.49a4.83,4.83,0,1,1,4.83-4.83A4.84,4.84,0,0,1,66.89,63.49Zm0-8.17a3.33,3.33,0,1,0,3.33,3.33A3.34,3.34,0,0,0,66.89,55.32Z"/><path class="cls-2" d="M71,59.41a.75.75,0,0,1-.75-.75,3.33,3.33,0,1,0-6.67,0,.75.75,0,0,1-.75.75H38.37a.75.75,0,0,1-.75-.75,3.33,3.33,0,0,0-6.67,0,.75.75,0,0,1-.75.75h-.62a2.54,2.54,0,0,1-2.12-1.13,2.51,2.51,0,0,1-.23-2.36c1.35-3.24,4.92-8.68,13.58-8.68H70.14a.75.75,0,0,1,.63.34,29.4,29.4,0,0,1,3.17,6.81h.11a2.52,2.52,0,0,1,.26,5Zm.69-1.5h2.58a1,1,0,0,0,.84-1,1,1,0,0,0-1-1h-.68a.75.75,0,0,1-.72-.55,27.55,27.55,0,0,0-2.93-6.6H40.81c-7.79,0-11,4.86-12.19,7.76a1,1,0,0,0,.09,1,1,1,0,0,0,.8.46,4.83,4.83,0,0,1,9.55,0h23a4.83,4.83,0,0,1,9.55,0Z"/><path class="cls-2" d="M34.29,60.16a1.51,1.51,0,1,1,1.51-1.51A1.51,1.51,0,0,1,34.29,60.16Zm0-1.51h0Z"/><path class="cls-2" d="M66.89,60.16a1.51,1.51,0,1,1,1.51-1.51A1.51,1.51,0,0,1,66.89,60.16Zm0-1.51h0Z"/><path class="cls-2" d="M63.14,28.34a7,7,0,0,1-4.27-1.46A5.28,5.28,0,1,1,57.64,17a7,7,0,0,1,11.89,1.47A4.48,4.48,0,1,1,67.23,27,7,7,0,0,1,63.14,28.34Zm-4.19-3.13a.75.75,0,0,1,.5.2,5.47,5.47,0,0,0,7.22.14.75.75,0,0,1,.88-.06A3,3,0,1,0,69.17,20H69a.75.75,0,0,1-.71-.5,5.49,5.49,0,0,0-9.75-1.19.75.75,0,0,1-.87.29,3.78,3.78,0,1,0,.84,6.72A.75.75,0,0,1,58.95,25.21Z"/><path class="cls-2" d="M51,23.52a4.91,4.91,0,0,1-1.76-.33,5,5,0,0,1,3.55-9.29,5,5,0,0,1,.92.47,4.91,4.91,0,0,1,5.82,2,.75.75,0,0,1-.12.95,5.55,5.55,0,0,0-.83,1,.75.75,0,0,1-.87.29,3.77,3.77,0,0,0-5,3.57,3.72,3.72,0,0,0,0,.39.75.75,0,0,1-.58.81A5,5,0,0,1,51,23.52Zm0-8.44a3.47,3.47,0,0,0-1.25,6.72,3.4,3.4,0,0,0,1.42.22,5.29,5.29,0,0,1,5.28-5.11,5.23,5.23,0,0,1,1.18.14l.26-.32a3.41,3.41,0,0,0-4-.83.75.75,0,0,1-.77-.09,3.51,3.51,0,0,0-.9-.51A3.46,3.46,0,0,0,51,15.07Z"/><path class="cls-2" d="M18.26,65.05H11.89a.75.75,0,0,1-.75-.75V54.09a3.94,3.94,0,0,1,7.87,0V64.3A.75.75,0,0,1,18.26,65.05Zm-5.62-1.5h4.87V54.09a2.44,2.44,0,0,0-4.87,0Z"/><path class="cls-2" d="M18.26,54.84H11.89a.75.75,0,0,1,0-1.5h6.37a.75.75,0,0,1,0,1.5Z"/><path class="cls-2" d="M11.68,55.44a1.61,1.61,0,0,0,0,3.21"/><path class="cls-2" d="M18.47,55.44a1.61,1.61,0,0,1,0,3.21"/><path class="cls-2" d="M15.08,59.28a1.68,1.68,0,1,1,1.68-1.68A1.68,1.68,0,0,1,15.08,59.28Zm0-2.36a.68.68,0,1,0,.68.68A.68.68,0,0,0,15.08,56.93Z"/><path class="cls-2" d="M15.08,50.91a3.16,3.16,0,0,1,1.87.62V50.26a.85.85,0,0,0-.85-.85h-2a.85.85,0,0,0-.85.85v1.26A3.16,3.16,0,0,1,15.08,50.91Z"/></svg>