<svg id="Layer_1" data-name="Layer 1" xmlns="http://www.w3.org/2000/svg" viewBox="0 0 94.92 94.47"><defs><style>.cls-1{fill:#c2b8ab;}.cls-2{fill:#32707f;}</style></defs><title>icons</title><circle class="cls-1" cx="49.32" cy="48.86" r="45.61"/><circle class="cls-2" cx="45.13" cy="45.18" r="42.59"/><path d="M84.58,64.31H6.49a.75.75,0,1,1,0-1.5H84.58a.75.75,0,0,1,0,1.5Z"/><path d="M70,48H40.68A.75.75,0,0,1,40,46.83c3.38-5.43,8.1-7.84,15.3-7.84a18.43,18.43,0,0,1,15.27,7.8A.75.75,0,0,1,70,48Zm-27.92-1.5H68.46a16.64,16.64,0,0,0-13.12-6C49.17,40.49,45.12,42.3,42.09,46.48Z"/><path d="M28.48,54.78a.75.75,0,0,1-.53-.22,3.58,3.58,0,0,1,4.69-5.4.75.75,0,0,1,0,1.21,12.18,12.18,0,0,0-3.49,4,.75.75,0,0,1-.55.38Zm2-4.83a2.09,2.09,0,0,0-2,2.64A13.62,13.62,0,0,1,30.75,50Z"/><path d="M40.68,58.66a.75.75,0,0,1-.75-.75V47.23a.75.75,0,0,1,1.5,0V57.91A.75.75,0,0,1,40.68,58.66Z"/><path d="M59.69,58.66a.75.75,0,0,1-.75-.75V40.52a.75.75,0,0,1,1.5,0V57.91A.75.75,0,0,1,59.69,58.66Z"/><path d="M56.92,51.2H55a.75.75,0,0,1,0-1.5h2a.75.75,0,0,1,0,1.5Z"/><path d="M34.15,62.74A4.83,4.83,0,1,1,39,57.91,4.84,4.84,0,0,1,34.15,62.74Zm0-8.17a3.33,3.33,0,1,0,3.33,3.33A3.34,3.34,0,0,0,34.15,54.57Z"/><path d="M66.75,62.74a4.83,4.83,0,1,1,4.83-4.83A4.84,4.84,0,0,1,66.75,62.74Zm0-8.17a3.33,3.33,0,1,0,3.33,3.33A3.34,3.34,0,0,0,66.75,54.57Z"/><path d="M70.83,58.66a.75.75,0,0,1-.75-.75,3.33,3.33,0,0,0-6.67,0,.75.75,0,0,1-.75.75H38.24a.75.75,0,0,1-.75-.75,3.33,3.33,0,0,0-6.67,0,.75.75,0,0,1-.75.75h-.62a2.54,2.54,0,0,1-2.12-1.13,2.51,2.51,0,0,1-.23-2.36c1.35-3.24,4.92-8.68,13.58-8.68H70a.75.75,0,0,1,.63.34,29.4,29.4,0,0,1,3.17,6.81h.11a2.52,2.52,0,0,1,.26,5Zm.69-1.5H74.1a1,1,0,0,0,.84-1,1,1,0,0,0-1-1h-.68a.75.75,0,0,1-.72-.55A27.55,27.55,0,0,0,69.59,48H40.68c-7.79,0-11,4.86-12.19,7.76a1,1,0,0,0,.09,1,1,1,0,0,0,.8.46,4.83,4.83,0,0,1,9.55,0H62a4.83,4.83,0,0,1,9.55,0Z"/><path d="M34.15,59.41a1.51,1.51,0,1,1,1.51-1.51A1.51,1.51,0,0,1,34.15,59.41Zm0-1.51h0Z"/><path d="M66.75,59.41a1.51,1.51,0,1,1,1.51-1.51A1.51,1.51,0,0,1,66.75,59.41Zm0-1.51h0Z"/><path d="M63,27.59a7,7,0,0,1-4.27-1.46,5.28,5.28,0,1,1-1.24-9.84,7,7,0,0,1,11.89,1.47,4.48,4.48,0,1,1-2.3,8.51A7,7,0,0,1,63,27.59Zm-4.19-3.13a.75.75,0,0,1,.5.2,5.47,5.47,0,0,0,7.22.14.75.75,0,0,1,.88-.06A3,3,0,1,0,69,19.25h-.15a.75.75,0,0,1-.71-.5,5.49,5.49,0,0,0-9.75-1.19.75.75,0,0,1-.87.29,3.78,3.78,0,1,0,.84,6.72A.75.75,0,0,1,58.81,24.46Z"/><path d="M50.85,22.77a4.91,4.91,0,0,1-1.76-.33,5,5,0,0,1,3.55-9.29,5,5,0,0,1,.92.47,4.91,4.91,0,0,1,5.82,2,.75.75,0,0,1-.12.95,5.55,5.55,0,0,0-.83,1,.75.75,0,0,1-.87.29,3.77,3.77,0,0,0-5,3.57,3.72,3.72,0,0,0,0,.39.75.75,0,0,1-.58.81A5,5,0,0,1,50.85,22.77Zm0-8.44A3.47,3.47,0,0,0,49.63,21a3.4,3.4,0,0,0,1.42.22,5.29,5.29,0,0,1,5.28-5.11,5.23,5.23,0,0,1,1.18.14l.26-.32a3.41,3.41,0,0,0-4-.83.75.75,0,0,1-.77-.09,3.51,3.51,0,0,0-.9-.51A3.46,3.46,0,0,0,50.87,14.32Z"/><path d="M18.13,64.31H11.75a.75.75,0,0,1-.75-.75V53.34a3.94,3.94,0,0,1,7.88,0V63.56A.75.75,0,0,1,18.13,64.31Zm-5.62-1.5h4.88V53.34a2.44,2.44,0,0,0-4.87,0Z"/><path d="M18.13,54.09H11.75a.75.75,0,1,1,0-1.5h6.38a.75.75,0,0,1,0,1.5Z"/><path d="M11.54,54.69a1.61,1.61,0,1,0,0,3.21"/><path d="M18.34,54.69a1.61,1.61,0,0,1,0,3.21"/><path d="M14.94,58.53a1.68,1.68,0,1,1,1.68-1.68A1.68,1.68,0,0,1,14.94,58.53Zm0-2.36a.68.68,0,1,0,.68.68A.68.68,0,0,0,14.94,56.18Z"/><path d="M14.94,50.16a3.16,3.16,0,0,1,1.87.62V49.51a.85.85,0,0,0-.85-.85h-2a.85.85,0,0,0-.85.85v1.26A3.16,3.16,0,0,1,14.94,50.16Z"/><path d="M45.53,91.06A45.53,45.53,0,1,1,91.06,45.53,45.58,45.58,0,0,1,45.53,91.06ZM45.53,4A41.53,41.53,0,1,0,87.06,45.53,41.58,41.58,0,0,0,45.53,4Z"/></svg>