<svg id="Layer_1" data-name="Layer 1" xmlns="http://www.w3.org/2000/svg" viewBox="0 0 107 66.59"><defs><style>.cls-1{fill:#f89f1b;}.cls-2{fill:#432c1f;}.cls-3{fill:#4c6c4c;}.cls-4{fill:#c75448;}.cls-5{fill:#fff;}</style></defs><title>half-owl</title><path class="cls-1" d="M246,445.33h39.05a65.17,65.17,0,0,1-.53-8.26A63.27,63.27,0,0,1,297.12,399a49.39,49.39,0,0,0-63.18,0,63.28,63.28,0,0,1,12.59,38.08A65.17,65.17,0,0,1,246,445.33Z" transform="translate(-212.03 -383.57)"/><path class="cls-2" d="M308.17,404.8l.28.37Z" transform="translate(-212.03 -383.57)"/><path class="cls-2" d="M222.62,405.17l.28-.36Z" transform="translate(-212.03 -383.57)"/><path class="cls-2" d="M309.47,406.6c.2.29.4.57.59.86Z" transform="translate(-212.03 -383.57)"/><path class="cls-2" d="M310.8,408.61c.26.42.52.83.77,1.26C311.33,409.45,311.07,409,310.8,408.61Z" transform="translate(-212.03 -383.57)"/><path class="cls-2" d="M216.82,415q.45-1,.94-2Q217.27,414,216.82,415Z" transform="translate(-212.03 -383.57)"/><path class="cls-2" d="M218.09,412.39c.28-.54.58-1.08.88-1.61Q218.52,411.57,218.09,412.39Z" transform="translate(-212.03 -383.57)"/><path class="cls-2" d="M219.49,409.87c.25-.42.51-.84.77-1.25C220,409,219.74,409.45,219.49,409.87Z" transform="translate(-212.03 -383.57)"/><path class="cls-2" d="M221,407.46c.19-.29.39-.57.59-.85Z" transform="translate(-212.03 -383.57)"/><path class="cls-2" d="M215.68,417.7q.45-1.15,1-2.29Q216.13,416.55,215.68,417.7Z" transform="translate(-212.03 -383.57)"/><path class="cls-2" d="M319,434.25q.07,1.41.08,2.82Q319,435.65,319,434.25Z" transform="translate(-212.03 -383.57)"/><path class="cls-2" d="M319,437.07q0,1.42-.08,2.82Q319,438.49,319,437.07Z" transform="translate(-212.03 -383.57)"/><path class="cls-2" d="M312.09,410.77c.3.54.6,1.08.88,1.62Q312.55,411.57,312.09,410.77Z" transform="translate(-212.03 -383.57)"/><path class="cls-2" d="M318.94,440.15c0,.86-.11,1.72-.21,2.58C318.82,441.87,318.89,441,318.94,440.15Z" transform="translate(-212.03 -383.57)"/><path class="cls-2" d="M318.73,431.42c.09.86.16,1.72.21,2.58C318.89,433.13,318.82,432.27,318.73,431.42Z" transform="translate(-212.03 -383.57)"/><path class="cls-2" d="M315.46,417.89a53.49,53.49,0,0,1,3.26,13.48A53.05,53.05,0,0,0,315.46,417.89Z" transform="translate(-212.03 -383.57)"/><path class="cls-2" d="M313.31,413q.49,1,.94,2Q313.8,414,313.31,413Z" transform="translate(-212.03 -383.57)"/><path class="cls-2" d="M314.44,415.41q.5,1.14,1,2.29Q314.94,416.55,314.44,415.41Z" transform="translate(-212.03 -383.57)"/><path class="cls-2" d="M212.11,439.89q-.07-1.41-.08-2.82Q212,438.49,212.11,439.89Z" transform="translate(-212.03 -383.57)"/><path class="cls-2" d="M212.34,442.78q.14,1.29.33,2.56h0C212.55,444.48,212.43,443.63,212.34,442.78Z" transform="translate(-212.03 -383.57)"/><path class="cls-2" d="M265.53,385.57a51.29,51.29,0,0,1,32.81,11.81l1.23-1.55a53.4,53.4,0,0,0-68.08,0l1.23,1.55A51.29,51.29,0,0,1,265.53,385.57Z" transform="translate(-212.03 -383.57)"/><path class="cls-2" d="M318.39,445.33q.2-1.27.33-2.56c-.09.86-.21,1.71-.34,2.56Z" transform="translate(-212.03 -383.57)"/><path class="cls-2" d="M212.34,442.73c-.09-.85-.16-1.71-.21-2.58C212.18,441,212.25,441.87,212.34,442.73Z" transform="translate(-212.03 -383.57)"/><path class="cls-2" d="M214.69,420.45q.42-1.29.91-2.56Q215.12,419.16,214.69,420.45Z" transform="translate(-212.03 -383.57)"/><path class="cls-2" d="M212.34,431.37a53.45,53.45,0,0,1,2.35-10.91A53.07,53.07,0,0,0,212.34,431.37Z" transform="translate(-212.03 -383.57)"/><path class="cls-2" d="M212,437.07q0-1.42.08-2.82Q212,435.65,212,437.07Z" transform="translate(-212.03 -383.57)"/><path class="cls-2" d="M212.13,434c0-.86.11-1.72.21-2.58C212.25,432.27,212.18,433.13,212.13,434Z" transform="translate(-212.03 -383.57)"/><path class="cls-2" d="M233.94,399a49.39,49.39,0,0,1,63.18,0c.38-.52.77-1,1.17-1.54l.06-.07a51.5,51.5,0,0,0-65.63,0l.06.07C233.18,398,233.56,398.48,233.94,399Z" transform="translate(-212.03 -383.57)"/><path class="cls-3" d="M242,445.33a61,61,0,0,0,.57-8.26A59.31,59.31,0,0,0,231,401.68a49.88,49.88,0,0,0-6.46,7.72l-.29.44c-.33.5-.66,1-1,1.52a49.54,49.54,0,0,0-7.15,23.21q-.06,1.24-.06,2.5t.06,2.5a49.27,49.27,0,0,0,.65,5.77Z" transform="translate(-212.03 -383.57)"/><path class="cls-3" d="M216.1,439.57q-.06-1.24-.06-2.5Q216,438.32,216.1,439.57Z" transform="translate(-212.03 -383.57)"/><path class="cls-3" d="M216,437.07q0-1.26.06-2.5Q216,435.82,216,437.07Z" transform="translate(-212.03 -383.57)"/><path class="cls-3" d="M223.25,411.36c.31-.51.64-1,1-1.52C223.89,410.35,223.56,410.85,223.25,411.36Z" transform="translate(-212.03 -383.57)"/><path class="cls-3" d="M231,401.68v0a49.52,49.52,0,0,0-6.45,7.74A49.88,49.88,0,0,1,231,401.68Z" transform="translate(-212.03 -383.57)"/><path class="cls-2" d="M231.49,395.83l0,0-1.59,1.42a53.44,53.44,0,0,0-7,7.6A54,54,0,0,1,231.49,395.83Z" transform="translate(-212.03 -383.57)"/><path class="cls-2" d="M220.26,408.62c.25-.39.49-.78.74-1.16C220.75,407.84,220.51,408.23,220.26,408.62Z" transform="translate(-212.03 -383.57)"/><path class="cls-2" d="M219,410.77l.52-.9Z" transform="translate(-212.03 -383.57)"/><path class="cls-2" d="M212.13,440.15c0-.09,0-.17,0-.26C212.11,440,212.12,440.06,212.13,440.15Z" transform="translate(-212.03 -383.57)"/><path class="cls-2" d="M212.34,442.78v0Z" transform="translate(-212.03 -383.57)"/><path class="cls-2" d="M215.6,417.89l.07-.19Z" transform="translate(-212.03 -383.57)"/><path class="cls-2" d="M216.63,415.42l.19-.41Z" transform="translate(-212.03 -383.57)"/><path class="cls-2" d="M217.76,413l.34-.66Z" transform="translate(-212.03 -383.57)"/><path class="cls-2" d="M221.59,406.6c.34-.48.67-1,1-1.44C222.27,405.64,221.93,406.12,221.59,406.6Z" transform="translate(-212.03 -383.57)"/><path class="cls-2" d="M212.34,431.42v0Z" transform="translate(-212.03 -383.57)"/><path class="cls-2" d="M214.69,420.46h0Z" transform="translate(-212.03 -383.57)"/><path class="cls-2" d="M212.11,434.25c0-.09,0-.17,0-.26C212.12,434.08,212.11,434.17,212.11,434.25Z" transform="translate(-212.03 -383.57)"/><path class="cls-2" d="M244,445.33h2a65.17,65.17,0,0,0,.53-8.26A63.28,63.28,0,0,0,233.94,399q-.77.64-1.51,1.31a61.68,61.68,0,0,1,12.1,36.77A62.38,62.38,0,0,1,244,445.33Z" transform="translate(-212.03 -383.57)"/><path class="cls-2" d="M214.7,445.33l0-.11c-.09-.55-.16-1.11-.23-1.66,0-.34-.09-.68-.13-1-.06-.61-.11-1.22-.15-1.83,0-.29-.05-.59-.07-.88,0-.91-.07-1.83-.07-2.75s0-1.84.07-2.75c0-.3,0-.59.07-.88,0-.61.09-1.23.15-1.83,0-.34.09-.68.13-1,.07-.56.14-1.11.23-1.66.06-.35.12-.7.19-1,.1-.53.19-1.06.3-1.59.07-.35.16-.69.24-1,.12-.52.25-1,.39-1.56.09-.34.19-.67.28-1,.15-.52.31-1,.47-1.55.1-.32.21-.63.32-.95q.27-.79.57-1.56l.35-.88q.32-.8.67-1.58l.36-.8c.25-.55.52-1.08.79-1.62l.36-.7c.3-.57.62-1.13.94-1.69l.32-.56c.37-.62.75-1.22,1.14-1.82l.23-.36q.71-1.06,1.46-2.09h0a51.8,51.8,0,0,1,8.64-9.14l-1.23-1.55a54,54,0,0,0-8.6,9l-.28.36c-.35.47-.69,1-1,1.44-.2.28-.4.57-.59.85s-.5.77-.74,1.16-.52.83-.77,1.25l-.52.9c-.3.53-.6,1.07-.88,1.61l-.34.66q-.49,1-.94,2l-.19.41q-.5,1.13-1,2.29l-.07.19q-.49,1.27-.91,2.56h0a53.45,53.45,0,0,0-2.35,10.91v.05c-.09.85-.16,1.71-.21,2.58,0,.09,0,.17,0,.26q-.07,1.41-.08,2.82t.08,2.82c0,.09,0,.17,0,.26,0,.86.11,1.72.21,2.58v.05c.09.86.21,1.71.34,2.56Z" transform="translate(-212.03 -383.57)"/><path class="cls-2" d="M214.18,433.44c0-.61.09-1.23.15-1.83C214.26,432.21,214.22,432.83,214.18,433.44Z" transform="translate(-212.03 -383.57)"/><path class="cls-2" d="M214.46,430.59c.07-.56.14-1.11.23-1.66C214.59,429.48,214.53,430,214.46,430.59Z" transform="translate(-212.03 -383.57)"/><path class="cls-2" d="M231.21,398.69c.42.53.82,1.07,1.22,1.62q.74-.67,1.51-1.31c-.38-.52-.77-1-1.17-1.54l-.06-.07a51.8,51.8,0,0,0-8.64,9.14A51.85,51.85,0,0,1,231.21,398.69Z" transform="translate(-212.03 -383.57)"/><path class="cls-2" d="M218.83,415.37c.25-.55.52-1.08.79-1.62C219.35,414.28,219.09,414.82,218.83,415.37Z" transform="translate(-212.03 -383.57)"/><path class="cls-2" d="M215.41,425.25c.12-.52.25-1,.39-1.56C215.66,424.21,215.54,424.73,215.41,425.25Z" transform="translate(-212.03 -383.57)"/><path class="cls-2" d="M216.09,422.69c.15-.52.31-1,.47-1.55C216.39,421.65,216.24,422.17,216.09,422.69Z" transform="translate(-212.03 -383.57)"/><path class="cls-2" d="M214.87,427.88c.1-.53.19-1.06.3-1.59C215.06,426.81,215,427.35,214.87,427.88Z" transform="translate(-212.03 -383.57)"/><path class="cls-2" d="M217.8,417.75q.32-.8.67-1.58Q218.12,416.95,217.8,417.75Z" transform="translate(-212.03 -383.57)"/><path class="cls-2" d="M216.88,420.19q.27-.78.57-1.56Q217.15,419.4,216.88,420.19Z" transform="translate(-212.03 -383.57)"/><path class="cls-2" d="M220,413c.3-.57.62-1.13.94-1.69C220.6,411.92,220.28,412.48,220,413Z" transform="translate(-212.03 -383.57)"/><path class="cls-2" d="M214.33,442.54c-.06-.61-.11-1.22-.15-1.83C214.22,441.32,214.26,441.93,214.33,442.54Z" transform="translate(-212.03 -383.57)"/><path class="cls-2" d="M214.68,445.22c-.09-.55-.16-1.11-.23-1.66C214.53,444.11,214.59,444.67,214.68,445.22Z" transform="translate(-212.03 -383.57)"/><path class="cls-2" d="M221.24,410.8c.37-.62.75-1.22,1.14-1.82C222,409.58,221.61,410.19,221.24,410.8Z" transform="translate(-212.03 -383.57)"/><path class="cls-2" d="M214.11,439.82c0-.91-.07-1.83-.07-2.75C214,438,214.06,438.91,214.11,439.82Z" transform="translate(-212.03 -383.57)"/><path class="cls-2" d="M222.61,408.62q.71-1.06,1.46-2.09Q223.31,407.56,222.61,408.62Z" transform="translate(-212.03 -383.57)"/><path class="cls-2" d="M214,437.07c0-.92,0-1.84.07-2.75C214.06,435.23,214,436.15,214,437.07Z" transform="translate(-212.03 -383.57)"/><path class="cls-2" d="M242,445.33h2a62.38,62.38,0,0,0,.55-8.26,61.68,61.68,0,0,0-12.1-36.77c-.5.45-1,.91-1.46,1.38a59.31,59.31,0,0,1,11.56,35.39A61,61,0,0,1,242,445.33Z" transform="translate(-212.03 -383.57)"/><path class="cls-2" d="M216.1,439.57a49.4,49.4,0,0,0,.64,5.77h0A49.27,49.27,0,0,1,216.1,439.57Z" transform="translate(-212.03 -383.57)"/><path class="cls-2" d="M216.1,434.58a49.54,49.54,0,0,1,7.15-23.21A49.17,49.17,0,0,0,216.1,434.58Z" transform="translate(-212.03 -383.57)"/><path class="cls-2" d="M224.23,409.84l.29-.44Z" transform="translate(-212.03 -383.57)"/><path class="cls-2" d="M222.38,409l.23-.36Z" transform="translate(-212.03 -383.57)"/><path class="cls-2" d="M217.45,418.63l.35-.88Z" transform="translate(-212.03 -383.57)"/><path class="cls-2" d="M219.62,413.75l.36-.7Z" transform="translate(-212.03 -383.57)"/><path class="cls-2" d="M218.47,416.17l.36-.8Z" transform="translate(-212.03 -383.57)"/><path class="cls-2" d="M220.92,411.36l.32-.56Z" transform="translate(-212.03 -383.57)"/><path class="cls-2" d="M215.17,426.29c.07-.35.16-.69.24-1C215.33,425.6,215.25,425.94,215.17,426.29Z" transform="translate(-212.03 -383.57)"/><path class="cls-2" d="M214.68,445.22l0,.11h0Z" transform="translate(-212.03 -383.57)"/><path class="cls-2" d="M214.46,443.56c0-.34-.09-.68-.13-1C214.36,442.88,214.41,443.22,214.46,443.56Z" transform="translate(-212.03 -383.57)"/><path class="cls-2" d="M224.07,406.53h0Z" transform="translate(-212.03 -383.57)"/><path class="cls-2" d="M214.18,440.71c0-.29-.05-.59-.07-.88C214.12,440.12,214.16,440.41,214.18,440.71Z" transform="translate(-212.03 -383.57)"/><path class="cls-2" d="M215.8,423.69c.09-.34.19-.67.28-1C216,423,215.89,423.35,215.8,423.69Z" transform="translate(-212.03 -383.57)"/><path class="cls-2" d="M216.56,421.14c.1-.32.21-.63.32-.95C216.77,420.5,216.66,420.82,216.56,421.14Z" transform="translate(-212.03 -383.57)"/><path class="cls-2" d="M214.68,428.93c.06-.35.12-.7.19-1C214.81,428.23,214.74,428.57,214.68,428.93Z" transform="translate(-212.03 -383.57)"/><path class="cls-2" d="M214.33,431.61c0-.34.09-.68.13-1C214.41,430.93,214.36,431.26,214.33,431.61Z" transform="translate(-212.03 -383.57)"/><path class="cls-2" d="M214.11,434.32c0-.3,0-.59.07-.88C214.16,433.73,214.12,434,214.11,434.32Z" transform="translate(-212.03 -383.57)"/><path class="cls-2" d="M216.74,445.33a49.4,49.4,0,0,1-.64-5.77q-.06-1.24-.06-2.5t.06-2.5a49.17,49.17,0,0,1,7.15-23.21c.31-.51.64-1,1-1.52l.29-.44a49.52,49.52,0,0,1,6.45-7.74v0c.48-.47,1-.93,1.46-1.38-.4-.54-.81-1.09-1.22-1.62a51.85,51.85,0,0,0-7.13,7.83h0q-.76,1-1.46,2.09l-.23.36c-.39.6-.77,1.2-1.14,1.82l-.32.56c-.32.56-.64,1.12-.94,1.69l-.36.7c-.27.53-.54,1.07-.79,1.62l-.36.8q-.35.78-.67,1.58l-.35.88q-.3.77-.57,1.56c-.11.32-.22.63-.32.95-.17.51-.32,1-.47,1.55-.1.33-.19.67-.28,1-.14.52-.26,1-.39,1.56-.08.35-.17.69-.24,1-.11.53-.21,1.06-.3,1.59-.06.35-.13.7-.19,1-.09.55-.16,1.11-.23,1.66,0,.34-.09.68-.13,1-.06.61-.11,1.22-.15,1.83,0,.29-.05.59-.07.88,0,.91-.07,1.83-.07,2.75s0,1.84.07,2.75c0,.3,0,.59.07.88,0,.61.09,1.23.15,1.83,0,.34.09.68.13,1,.07.56.14,1.11.23,1.66l0,.11Z" transform="translate(-212.03 -383.57)"/><path class="cls-3" d="M289.1,445.33h25.22a49.27,49.27,0,0,0,.65-5.77q.06-1.24.06-2.5t-.06-2.5a49.54,49.54,0,0,0-7.15-23.21c-.33-.54-.67-1.07-1-1.59l-.24-.37a49.86,49.86,0,0,0-6.46-7.72,59.31,59.31,0,0,0-11.56,35.39A61,61,0,0,0,289.1,445.33Z" transform="translate(-212.03 -383.57)"/><path class="cls-3" d="M315,434.58q.06,1.24.06,2.5Q315,435.82,315,434.58Z" transform="translate(-212.03 -383.57)"/><path class="cls-3" d="M306.56,409.4a49.52,49.52,0,0,0-6.45-7.74l0,0A49.86,49.86,0,0,1,306.56,409.4Z" transform="translate(-212.03 -383.57)"/><path class="cls-3" d="M306.8,409.77c.35.52.69,1.05,1,1.59C307.49,410.83,307.15,410.3,306.8,409.77Z" transform="translate(-212.03 -383.57)"/><path class="cls-3" d="M315,437.07q0,1.26-.06,2.5Q315,438.32,315,437.07Z" transform="translate(-212.03 -383.57)"/><path class="cls-2" d="M318.73,431.37v0Z" transform="translate(-212.03 -383.57)"/><path class="cls-2" d="M314.25,415l.18.41Z" transform="translate(-212.03 -383.57)"/><path class="cls-2" d="M315.39,417.71l.07.18Z" transform="translate(-212.03 -383.57)"/><path class="cls-2" d="M310.07,407.46c.25.38.5.77.74,1.15C310.56,408.23,310.32,407.84,310.07,407.46Z" transform="translate(-212.03 -383.57)"/><path class="cls-2" d="M313,412.39l.33.65Z" transform="translate(-212.03 -383.57)"/><path class="cls-2" d="M311.58,409.87l.52.9Z" transform="translate(-212.03 -383.57)"/><path class="cls-2" d="M308.45,405.17c.35.47.68,1,1,1.43C309.14,406.12,308.8,405.64,308.45,405.17Z" transform="translate(-212.03 -383.57)"/><path class="cls-2" d="M319,439.89c0,.09,0,.17,0,.25C318.94,440.06,319,440,319,439.89Z" transform="translate(-212.03 -383.57)"/><path class="cls-2" d="M318.73,442.73v0Z" transform="translate(-212.03 -383.57)"/><path class="cls-2" d="M308.17,404.8a53.45,53.45,0,0,0-7-7.6l-1.59-1.42,0,0A54,54,0,0,1,308.17,404.8Z" transform="translate(-212.03 -383.57)"/><path class="cls-2" d="M318.94,434c0,.09,0,.17,0,.25C319,434.17,318.94,434.08,318.94,434Z" transform="translate(-212.03 -383.57)"/><path class="cls-2" d="M285.06,445.33h2a62.38,62.38,0,0,1-.55-8.26,61.68,61.68,0,0,1,12.1-36.77q-.74-.67-1.51-1.31a63.27,63.27,0,0,0-12.59,38.08A65.17,65.17,0,0,0,285.06,445.33Z" transform="translate(-212.03 -383.57)"/><path class="cls-2" d="M307,406.52h0q.76,1,1.46,2.09l.23.36c.39.6.77,1.2,1.14,1.82l.32.56c.32.56.64,1.12.94,1.69l.36.7c.27.53.54,1.07.79,1.62l.36.8q.35.78.67,1.58l.35.88q.3.77.57,1.56c.11.32.22.63.32.95.17.51.32,1,.47,1.55.1.33.19.67.28,1,.14.52.26,1,.39,1.56.08.35.17.69.24,1,.11.53.21,1.06.3,1.59.06.35.13.7.19,1,.09.55.16,1.11.23,1.66,0,.34.09.68.13,1,.06.61.11,1.22.15,1.83,0,.29.05.59.07.88,0,.91.07,1.83.07,2.75s0,1.84-.07,2.75c0,.3,0,.59-.07.88,0,.61-.09,1.23-.15,1.83,0,.34-.09.68-.13,1-.07.56-.14,1.11-.23,1.66l0,.11h2c.13-.85.25-1.7.34-2.56v-.05c.09-.86.16-1.72.21-2.58,0-.09,0-.17,0-.25q.07-1.41.08-2.82t-.08-2.82c0-.09,0-.17,0-.25,0-.86-.11-1.72-.21-2.58v-.05a53.49,53.49,0,0,0-3.26-13.48l-.07-.18q-.45-1.16-1-2.29l-.18-.41q-.45-1-.94-2l-.33-.65c-.28-.55-.58-1.09-.88-1.62l-.52-.9c-.25-.42-.51-.84-.77-1.26s-.49-.77-.74-1.15-.39-.58-.59-.86c-.33-.48-.67-1-1-1.43l-.28-.37a54,54,0,0,0-8.59-9l-1.23,1.55A51.8,51.8,0,0,1,307,406.52Z" transform="translate(-212.03 -383.57)"/><path class="cls-2" d="M316.39,428.93c.09.55.16,1.11.23,1.66C316.54,430,316.47,429.48,316.39,428.93Z" transform="translate(-212.03 -383.57)"/><path class="cls-2" d="M314.51,421.14c.17.51.32,1,.47,1.55C314.83,422.17,314.68,421.65,314.51,421.14Z" transform="translate(-212.03 -383.57)"/><path class="cls-2" d="M315.27,423.69c.14.52.26,1,.39,1.56C315.53,424.73,315.41,424.21,315.27,423.69Z" transform="translate(-212.03 -383.57)"/><path class="cls-2" d="M315.89,426.29c.11.53.21,1.06.3,1.59C316.1,427.35,316,426.81,315.89,426.29Z" transform="translate(-212.03 -383.57)"/><path class="cls-2" d="M313.62,418.63q.3.77.57,1.56Q313.92,419.4,313.62,418.63Z" transform="translate(-212.03 -383.57)"/><path class="cls-2" d="M308.69,409c.39.6.77,1.2,1.14,1.82C309.46,410.19,309.08,409.58,308.69,409Z" transform="translate(-212.03 -383.57)"/><path class="cls-2" d="M307,406.53q.76,1,1.46,2.09Q307.75,407.56,307,406.53Z" transform="translate(-212.03 -383.57)"/><path class="cls-2" d="M311.45,413.75c.27.53.54,1.07.79,1.62C312,414.82,311.72,414.28,311.45,413.75Z" transform="translate(-212.03 -383.57)"/><path class="cls-2" d="M310.15,411.36c.32.56.64,1.12.94,1.69C310.79,412.48,310.47,411.92,310.15,411.36Z" transform="translate(-212.03 -383.57)"/><path class="cls-2" d="M312.6,416.17q.35.78.67,1.58Q312.95,416.95,312.6,416.17Z" transform="translate(-212.03 -383.57)"/><path class="cls-2" d="M316.89,440.71c0,.61-.09,1.23-.15,1.83C316.81,441.93,316.85,441.32,316.89,440.71Z" transform="translate(-212.03 -383.57)"/><path class="cls-2" d="M297.12,399q.77.64,1.51,1.31c.4-.54.81-1.09,1.22-1.62a51.85,51.85,0,0,1,7.13,7.83,51.8,51.8,0,0,0-8.64-9.14l-.06.07C297.89,398,297.51,398.48,297.12,399Z" transform="translate(-212.03 -383.57)"/><path class="cls-2" d="M316.74,431.61c.06.61.11,1.22.15,1.83C316.85,432.83,316.81,432.21,316.74,431.61Z" transform="translate(-212.03 -383.57)"/><path class="cls-2" d="M317,437.07c0,.92,0,1.84-.07,2.75C317,438.91,317,438,317,437.07Z" transform="translate(-212.03 -383.57)"/><path class="cls-2" d="M317,434.32c0,.91.07,1.83.07,2.75C317,436.15,317,435.23,317,434.32Z" transform="translate(-212.03 -383.57)"/><path class="cls-2" d="M316.61,443.56c-.07.56-.14,1.11-.23,1.66C316.47,444.67,316.54,444.11,316.61,443.56Z" transform="translate(-212.03 -383.57)"/><path class="cls-2" d="M314.33,445.33a49.4,49.4,0,0,0,.64-5.77,49.27,49.27,0,0,1-.65,5.77Z" transform="translate(-212.03 -383.57)"/><path class="cls-2" d="M306.56,409.4l.24.37Z" transform="translate(-212.03 -383.57)"/><path class="cls-2" d="M287.09,445.33h2a61,61,0,0,1-.57-8.26,59.31,59.31,0,0,1,11.56-35.39c-.48-.47-1-.93-1.46-1.38a61.68,61.68,0,0,0-12.1,36.77A62.38,62.38,0,0,0,287.09,445.33Z" transform="translate(-212.03 -383.57)"/><path class="cls-2" d="M307.82,411.37A49.54,49.54,0,0,1,315,434.58,49.17,49.17,0,0,0,307.82,411.37Z" transform="translate(-212.03 -383.57)"/><path class="cls-2" d="M316.37,445.33l0-.11,0,.11Z" transform="translate(-212.03 -383.57)"/><path class="cls-2" d="M308.46,408.62l.23.36Z" transform="translate(-212.03 -383.57)"/><path class="cls-2" d="M316.74,442.54c0,.34-.09.68-.13,1C316.66,443.22,316.71,442.88,316.74,442.54Z" transform="translate(-212.03 -383.57)"/><path class="cls-2" d="M316.2,427.88c.06.35.13.7.19,1C316.33,428.57,316.26,428.23,316.2,427.88Z" transform="translate(-212.03 -383.57)"/><path class="cls-2" d="M307,406.52h0Z" transform="translate(-212.03 -383.57)"/><path class="cls-2" d="M314.19,420.19c.11.32.22.63.32.95C314.41,420.82,314.3,420.5,314.19,420.19Z" transform="translate(-212.03 -383.57)"/><path class="cls-2" d="M316.61,430.59c0,.34.09.68.13,1C316.71,431.26,316.66,430.93,316.61,430.59Z" transform="translate(-212.03 -383.57)"/><path class="cls-2" d="M313.27,417.75l.35.88Z" transform="translate(-212.03 -383.57)"/><path class="cls-2" d="M316.89,433.44c0,.29.05.59.07.88C316.94,434,316.91,433.73,316.89,433.44Z" transform="translate(-212.03 -383.57)"/><path class="cls-2" d="M315,422.69c.1.33.19.67.28,1C315.18,423.35,315.08,423,315,422.69Z" transform="translate(-212.03 -383.57)"/><path class="cls-2" d="M315.65,425.25c.08.35.17.69.24,1C315.82,425.94,315.74,425.6,315.65,425.25Z" transform="translate(-212.03 -383.57)"/><path class="cls-2" d="M317,439.82c0,.3,0,.59-.07.88C316.91,440.41,316.94,440.12,317,439.82Z" transform="translate(-212.03 -383.57)"/><path class="cls-2" d="M311.09,413l.36.7Z" transform="translate(-212.03 -383.57)"/><path class="cls-2" d="M309.83,410.8l.32.56Z" transform="translate(-212.03 -383.57)"/><path class="cls-2" d="M312.24,415.36l.36.8Z" transform="translate(-212.03 -383.57)"/><path class="cls-2" d="M299.86,398.69c-.42.53-.82,1.07-1.22,1.62.5.45,1,.91,1.46,1.38l0,0a49.52,49.52,0,0,1,6.45,7.74l.24.37c.35.53.69,1.05,1,1.59A49.17,49.17,0,0,1,315,434.58q.06,1.24.06,2.5t-.06,2.5a49.4,49.4,0,0,1-.64,5.77h2l0-.11c.09-.55.16-1.11.23-1.66,0-.34.09-.68.13-1,.06-.61.11-1.22.15-1.83,0-.29.05-.59.07-.88,0-.91.07-1.83.07-2.75s0-1.84-.07-2.75c0-.3,0-.59-.07-.88,0-.61-.09-1.23-.15-1.83,0-.34-.09-.68-.13-1-.07-.56-.14-1.11-.23-1.66-.06-.35-.12-.7-.19-1-.1-.53-.19-1.06-.3-1.59-.07-.35-.16-.69-.24-1-.12-.52-.25-1-.39-1.56-.09-.34-.19-.67-.28-1-.15-.52-.31-1-.47-1.55-.1-.32-.21-.63-.32-.95q-.27-.78-.57-1.56l-.35-.88q-.32-.8-.67-1.58l-.36-.8c-.25-.54-.52-1.08-.79-1.62l-.36-.7c-.3-.57-.62-1.13-.94-1.69l-.32-.56c-.37-.62-.75-1.22-1.14-1.82l-.23-.36q-.71-1.06-1.46-2.09h0A51.85,51.85,0,0,0,299.86,398.69Z" transform="translate(-212.03 -383.57)"/><path class="cls-2" d="M259.17,407.1a2,2,0,0,1-1.42-.59,19.86,19.86,0,0,0-14.22-5.93c-2.43,0-5.3.3-8.33.62-6,.63-11.71,1.22-15.41-.26a2,2,0,0,1,1.49-3.71c2.78,1.11,8.48.52,13.51,0,3-.31,6.11-.64,8.75-.64a23.83,23.83,0,0,1,17.06,7.12,2,2,0,0,1-1.42,3.41Z" transform="translate(-212.03 -383.57)"/><path class="cls-2" d="M271.9,407.1a2,2,0,0,1-1.42-3.41,23.83,23.83,0,0,1,17.06-7.12c2.64,0,5.74.32,8.75.64,5,.52,10.73,1.12,13.51,0a2,2,0,0,1,1.49,3.71c-3.69,1.48-9.39.89-15.41.26-3-.32-5.9-.62-8.33-.62a19.86,19.86,0,0,0-14.22,5.93A2,2,0,0,1,271.9,407.1Z" transform="translate(-212.03 -383.57)"/><polygon class="cls-2" points="53.5 66.59 62.63 50.77 44.37 50.77 53.5 66.59"/><path class="cls-4" d="M222.2,411.57l43.17,6.32L306,411.57a11.87,11.87,0,0,0,3.86-.65,51.49,51.49,0,0,0-89.05.57A12,12,0,0,0,222.2,411.57Z" transform="translate(-212.03 -383.57)"/><path class="cls-2" d="M265.38,419.92,222,413.57a14.12,14.12,0,0,1-1.43-.09l-3-.34,1.51-2.64a53.49,53.49,0,0,1,92.51-.59l1.25,2.11-2.32.8a13.89,13.89,0,0,1-4.35.76Zm-41.17-10.07,41.15,6,40.67-6.3.64,0a49.48,49.48,0,0,0-82.46.29Z" transform="translate(-212.03 -383.57)"/><circle class="cls-5" cx="31.5" cy="37" r="22"/><path class="cls-2" d="M243.53,444.57a24,24,0,1,1,24-24A24,24,0,0,1,243.53,444.57Zm0-44a20,20,0,1,0,20,20A20,20,0,0,0,243.53,400.57Z" transform="translate(-212.03 -383.57)"/><circle class="cls-5" cx="75.5" cy="37" r="22"/><path class="cls-2" d="M287.53,444.57a24,24,0,1,1,24-24A24,24,0,0,1,287.53,444.57Zm0-44a20,20,0,1,0,20,20A20,20,0,0,0,287.53,400.57Z" transform="translate(-212.03 -383.57)"/><rect class="cls-2" x="26.5" y="31.5" width="10" height="10" rx="5" ry="5"/><rect class="cls-2" x="70.5" y="31.5" width="10" height="10" rx="5" ry="5"/></svg>