<svg id="Layer_1" data-name="Layer 1" xmlns="http://www.w3.org/2000/svg" viewBox="0 0 94.92 94.47"><defs><style>.cls-1{fill:#c2b8ab;}.cls-2{fill:#26675b;}</style></defs><title>icons</title><circle class="cls-1" cx="49.32" cy="48.86" r="45.61"/><circle class="cls-2" cx="46.07" cy="45.53" r="42.36"/><path d="M60.86,66.3H52.24a.75.75,0,0,1-.75-.75V17.1a.75.75,0,0,1,.75-.75h8.63a.75.75,0,0,1,.75.75V65.55A.75.75,0,0,1,60.86,66.3ZM53,64.8h7.13V17.85H53Z"/><path d="M84,66.3H7.1a.75.75,0,0,1,0-1.5H84a.75.75,0,0,1,0,1.5Z"/><path d="M60.86,29.25A.75.75,0,0,1,60.33,28L66.7,21.6a.75.75,0,0,1,1.06,1.06L61.39,29A.75.75,0,0,1,60.86,29.25Z"/><path d="M52.24,39.42a.75.75,0,0,1-.53-.22L41,28.49a.75.75,0,0,1,1.06-1.06L52.77,38.14a.75.75,0,0,1-.53,1.28Z"/><path d="M60.86,48.92a.75.75,0,0,1-.53-1.28L72,36A.75.75,0,0,1,73.06,37L61.39,48.7A.75.75,0,0,1,60.86,48.92Z"/><path d="M51.7,58a.75.75,0,0,1-.53-.22L39.92,46.57A.75.75,0,1,1,41,45.51L52.23,56.76A.75.75,0,0,1,51.7,58Z"/><path d="M42.84,31.21a6.08,6.08,0,0,1-4.27-1.44,11.14,11.14,0,0,1-2.91-6.89.75.75,0,0,1,.79-.77A11.46,11.46,0,0,1,43.33,25c1.9,1.9,1.38,5.35,1.36,5.49a.75.75,0,0,1-.62.62A8.47,8.47,0,0,1,42.84,31.21ZM44,30.38h0Zm-6.68-6.67a9.3,9.3,0,0,0,2.37,5,5,5,0,0,0,3.63,1,5,5,0,0,0-1-3.63A9.46,9.46,0,0,0,37.27,23.71Z"/><path d="M19.29,56.85a.75.75,0,0,1-.53-.22L14.14,52a.75.75,0,1,1,1.06-1.06l4.62,4.62a.75.75,0,0,1-.53,1.28Z"/><path d="M16,54.72a6.08,6.08,0,0,1-4.27-1.44,11.14,11.14,0,0,1-2.91-6.89.75.75,0,0,1,.79-.77,11.46,11.46,0,0,1,6.88,2.91h0c1.9,1.9,1.38,5.35,1.36,5.49a.75.75,0,0,1-.62.62A8.46,8.46,0,0,1,16,54.72Zm1.11-.82h0Zm-6.68-6.67a9.3,9.3,0,0,0,2.37,5,5.06,5.06,0,0,0,3.63,1,5,5,0,0,0-1-3.63h0A9.46,9.46,0,0,0,10.41,47.22Z"/><path d="M41.58,49.11a6.08,6.08,0,0,1-4.27-1.44,11.14,11.14,0,0,1-2.91-6.89.75.75,0,0,1,.22-.56.73.73,0,0,1,.56-.21,11.47,11.47,0,0,1,6.88,2.91h0c1.9,1.9,1.38,5.35,1.36,5.49a.75.75,0,0,1-.62.62A8.44,8.44,0,0,1,41.58,49.11ZM36,41.61a9.3,9.3,0,0,0,2.37,5,5,5,0,0,0,3.63,1A5,5,0,0,0,41,44,9.46,9.46,0,0,0,36,41.61Z"/><path d="M39.28,56.7a11.14,11.14,0,0,1-6.93-2.82.75.75,0,0,1,0-1.1A11.47,11.47,0,0,1,39.28,50C42,50,44,52.78,44.12,52.9a.75.75,0,0,1,0,.88C44,53.9,42,56.7,39.28,56.7Zm-5.21-3.36a9.3,9.3,0,0,0,5.21,1.86,5,5,0,0,0,3.27-1.86,5,5,0,0,0-3.27-1.87A9.46,9.46,0,0,0,34.07,53.35Z"/><path d="M47.74,50.19A.75.75,0,0,1,47.3,50c-.12-.09-2.92-2.15-2.92-4.85a11.14,11.14,0,0,1,2.82-6.93.75.75,0,0,1,.55-.24h0a.75.75,0,0,1,.55.25,11.47,11.47,0,0,1,2.81,6.92c0,2.69-2.8,4.76-2.92,4.85A.75.75,0,0,1,47.74,50.19Zm0-10.2a9.3,9.3,0,0,0-1.86,5.21,5,5,0,0,0,1.86,3.27,5,5,0,0,0,1.87-3.27A9.46,9.46,0,0,0,47.74,40Z"/><path d="M65,26.12A8.46,8.46,0,0,1,63.82,26a.75.75,0,0,1-.62-.62c0-.15-.54-3.59,1.36-5.49h0A11.46,11.46,0,0,1,71.43,17a.74.74,0,0,1,.56.21.75.75,0,0,1,.22.56,11.13,11.13,0,0,1-2.91,6.89A6.08,6.08,0,0,1,65,26.12Zm-.42-1.51a5,5,0,0,0,3.63-1,9.3,9.3,0,0,0,2.37-5,9.5,9.5,0,0,0-5,2.36h0A5,5,0,0,0,64.62,24.61Zm.47-4.16h0Z"/><path d="M70.78,40.18a8.46,8.46,0,0,1-1.22-.08.75.75,0,0,1-.62-.62c0-.15-.54-3.59,1.36-5.49h0a11.46,11.46,0,0,1,6.88-2.91.74.74,0,0,1,.56.21.75.75,0,0,1,.22.56,11.14,11.14,0,0,1-2.91,6.89A6.08,6.08,0,0,1,70.78,40.18Zm-.42-1.51a5,5,0,0,0,3.63-1,9.3,9.3,0,0,0,2.37-5,9.5,9.5,0,0,0-5,2.36h0A5,5,0,0,0,70.36,38.67Zm.47-4.16h0Z"/><path d="M47.74,54.09h-8.1a.75.75,0,0,1,0-1.5h8.1a.75.75,0,0,1,0,1.5Z"/><path d="M73.74,47.12c-2.69,0-4.76-2.8-4.85-2.92a.75.75,0,0,1,0-.88C69,43.2,71,40.4,73.74,40.4a11.14,11.14,0,0,1,6.93,2.82.75.75,0,0,1,0,1.1A11.47,11.47,0,0,1,73.74,47.12Zm-3.27-3.37a5,5,0,0,0,3.27,1.87,9.46,9.46,0,0,0,5.21-1.87,9.3,9.3,0,0,0-5.21-1.86A5,5,0,0,0,70.47,43.76Z"/><path d="M73.38,44.51h-8.1a.75.75,0,0,1,0-1.5h8.1a.75.75,0,0,1,0,1.5Z"/><path d="M65.27,40.28a.75.75,0,0,1-.44-.14c-.12-.09-2.92-2.15-2.92-4.85a11.14,11.14,0,0,1,2.82-6.93.75.75,0,0,1,.55-.24h0a.75.75,0,0,1,.55.25,11.47,11.47,0,0,1,2.81,6.92c0,2.69-2.8,4.76-2.92,4.85A.75.75,0,0,1,65.27,40.28Zm0-10.2a9.3,9.3,0,0,0-1.86,5.2,5,5,0,0,0,1.86,3.27,5,5,0,0,0,1.87-3.27A9.49,9.49,0,0,0,65.27,30.09Z"/><path d="M65.27,44.51a.75.75,0,0,1-.75-.75v-8.1a.75.75,0,0,1,1.5,0v8.1A.75.75,0,0,1,65.27,44.51Z"/><path d="M47.74,54.09a.75.75,0,0,1-.75-.75V45.53a.75.75,0,0,1,1.5,0v7.81A.75.75,0,0,1,47.74,54.09Z"/><path d="M54.66,38.17a.5.5,0,0,1-.5-.5V17.1a.5.5,0,0,1,1,0V37.67A.5.5,0,0,1,54.66,38.17Z"/><path d="M56.83,48.86a.5.5,0,0,1-.5-.5V26.65a.5.5,0,1,1,1,0V48.36A.5.5,0,0,1,56.83,48.86Z"/><path d="M54.16,55.84a.5.5,0,0,1-.5-.5V41.15a.5.5,0,1,1,1,0V55.34A.5.5,0,0,1,54.16,55.84Z"/><path d="M56.83,62.25a.5.5,0,0,1-.5-.5V52.2a.5.5,0,0,1,1,0v9.56A.5.5,0,0,1,56.83,62.25Z"/><path d="M54.66,66.05a.5.5,0,0,1-.5-.5v-6.2a.5.5,0,0,1,1,0v6.2A.5.5,0,0,1,54.66,66.05Z"/><path d="M58.66,30.17a.5.5,0,0,1-.5-.5V17.76a.5.5,0,0,1,1,0V29.67A.5.5,0,0,1,58.66,30.17Z"/><path d="M31,65.67H12.68a.75.75,0,0,1-.75-.75V56.29a.75.75,0,0,1,.75-.75H31a.75.75,0,0,1,.75.75v8.63A.75.75,0,0,1,31,65.67Zm-17.54-1.5H30.22V57H13.43Z"/><path d="M29,63H12.68a.5.5,0,0,1,0-1H29a.5.5,0,1,1,0,1Z"/><path d="M31,60.83H20.26a.5.5,0,0,1,0-1H31a.5.5,0,1,1,0,1Z"/><path d="M22.66,59H13.21a.5.5,0,0,1,0-1h9.45a.5.5,0,0,1,0,1Z"/><path d="M58.94,61.11a.5.5,0,0,1-.5-.5V40.76a.5.5,0,0,1,1,0V60.61A.5.5,0,0,1,58.94,61.11Z"/><path d="M58.94,65.88a.5.5,0,0,1-.5-.5V63a.5.5,0,0,1,1,0v2.38A.5.5,0,0,1,58.94,65.88Z"/><path d="M45.53,91.06A45.53,45.53,0,1,1,91.06,45.53,45.58,45.58,0,0,1,45.53,91.06ZM45.53,4A41.53,41.53,0,1,0,87.06,45.53,41.58,41.58,0,0,0,45.53,4Z"/></svg>