<svg id="Layer_1" data-name="Layer 1" xmlns="http://www.w3.org/2000/svg" viewBox="0 0 91.06 101.81"><defs><style>.cls-1,.cls-4{fill:#c85549;}.cls-2{fill:#010101;}.cls-3,.cls-5{fill:none;}.cls-3{stroke:#010101;}.cls-3,.cls-4,.cls-5{stroke-linecap:round;stroke-linejoin:round;stroke-width:1.5px;}.cls-4,.cls-5{stroke:#231f20;}</style></defs><title>icons</title><circle class="cls-1" cx="45.53" cy="46.17" r="42.7"/><path class="cls-2" d="M91.06,45.53A45.53,45.53,0,1,0,33.34,89.39l12.19,12.42L57.72,89.39A45.6,45.6,0,0,0,91.06,45.53ZM45.53,87.06A41.53,41.53,0,1,1,87.06,45.53,41.58,41.58,0,0,1,45.53,87.06Z"/><line class="cls-3" x1="5.53" y1="65.2" x2="82.76" y2="65.2"/><path class="cls-3" d="M17.51,32H42.7a0,0,0,0,1,0,0V60.65a4.42,4.42,0,0,1-4.42,4.42H21.93a4.42,4.42,0,0,1-4.42-4.42V32A0,0,0,0,1,17.51,32Z"/><line class="cls-3" x1="14.47" y1="32.01" x2="45.74" y2="32.01"/><rect class="cls-3" x="16.13" y="28.83" width="27.94" height="3.18"/><path class="cls-3" d="M28.41,25.71h3.38a3.12,3.12,0,0,1,3.12,3.12v0a0,0,0,0,1,0,0H25.29a0,0,0,0,1,0,0v0A3.12,3.12,0,0,1,28.41,25.71Z"/><line class="cls-3" x1="30.37" y1="36.92" x2="30.37" y2="58.67"/><line class="cls-3" x1="22.7" y1="36.92" x2="22.7" y2="58.67"/><line class="cls-3" x1="38.05" y1="36.92" x2="38.05" y2="58.67"/><path class="cls-4" d="M37.56,35.57H68.5a0,0,0,0,1,0,0V53.05A4.47,4.47,0,0,1,64,57.52H57.36A19.81,19.81,0,0,1,37.56,37.71V35.57a0,0,0,0,1,0,0Z" transform="translate(-0.24 0.28) rotate(-0.3)"/><circle class="cls-4" cx="39.07" cy="57.9" r="6.57" transform="matrix(1, -0.01, 0.01, 1, -0.3, 0.2)"/><circle class="cls-4" cx="39.07" cy="57.9" r="4.3" transform="translate(-0.3 0.2) rotate(-0.3)"/><line class="cls-4" x1="34.65" y1="35.67" x2="68.44" y2="35.49"/><path class="cls-4" d="M75.66,38.64h3.91a1.26,1.26,0,0,1,1.26,1.26v0a1.26,1.26,0,0,1-1.26,1.26H75.66a0,0,0,0,1,0,0V38.64A0,0,0,0,1,75.66,38.64Z" transform="translate(-0.21 0.41) rotate(-0.3)"/><polygon class="cls-4" points="65.67 33.71 62.87 31.81 58.32 32.35 54.36 29.66 49.83 28.1 45.25 27.72 41.46 29.07 40.75 31.91 39.08 32.59 39.75 35.66 66.83 35.51 65.67 33.71"/><path class="cls-5" d="M28.84,58.16l26-.14a2.59,2.59,0,0,1,2.6,2.57v.92a2.28,2.28,0,0,0,2.3,2.27l3.32,0a8.56,8.56,0,0,0,8.52-8.61L71.52,44.1a4.17,4.17,0,0,1,4.14-4.19h0"/></svg>