<svg id="Layer_1" data-name="Layer 1" xmlns="http://www.w3.org/2000/svg" viewBox="0 0 91.06 101.81"><defs><style>.cls-1,.cls-3{fill:#f06924;}.cls-2{fill:#010101;}.cls-3,.cls-4,.cls-5{stroke:#010101;stroke-linecap:round;stroke-linejoin:round;}.cls-3,.cls-4{stroke-width:1.5px;}.cls-4,.cls-5{fill:none;}</style></defs><title>icons</title><circle class="cls-1" cx="45.53" cy="45.8" r="43.25"/><path class="cls-2" d="M91.06,45.42A45.53,45.53,0,1,0,33.34,89.28L45.53,101.7,57.72,89.28A45.6,45.6,0,0,0,91.06,45.42ZM45.53,86.95A41.53,41.53,0,1,1,87.06,45.42,41.58,41.58,0,0,1,45.53,86.95Z"/><ellipse class="cls-3" cx="25.05" cy="56.77" rx="7.2" ry="10.91" transform="translate(-35.06 41.39) rotate(-51.83)"/><line class="cls-4" x1="9.47" y1="67.59" x2="81.59" y2="67.59"/><path class="cls-3" d="M55.65,61.28H12.28l1.18,3.82a2.3,2.3,0,0,0,2.2,1.63H52.35a2.3,2.3,0,0,0,2.21-1.67Z"/><path class="cls-5" d="M53.49,32a4.91,4.91,0,0,1,0-9.82"/><path class="cls-5" d="M56.37,8.91a6.58,6.58,0,0,1,0,13.16"/><path class="cls-5" d="M54.61,12a3.53,3.53,0,0,1,0,7.06"/><path class="cls-5" d="M56.37,32.25a3,3,0,1,1,0,6"/><rect class="cls-3" x="9.27" y="57.91" width="49.39" height="3.37" rx="1.69" ry="1.69"/><path class="cls-3" d="M38.4,40.69H69.65a0,0,0,0,1,0,0V52.37a12.2,12.2,0,0,1-12.2,12.2H50.6a12.2,12.2,0,0,1-12.2-12.2V40.69A0,0,0,0,1,38.4,40.69Z"/><path class="cls-3" d="M38.4,64.57H69.65a0,0,0,0,1,0,0v0a2.95,2.95,0,0,1-2.95,2.95H41.34a2.95,2.95,0,0,1-2.95-2.95v0A0,0,0,0,1,38.4,64.57Z"/><rect class="cls-4" x="38.4" y="43.64" width="31.25" height="4.33"/><path class="cls-4" d="M69.65,55.34a6.63,6.63,0,1,0,0-13.26"/><path class="cls-4" d="M69.65,53.12a4.41,4.41,0,1,0,0-8.82"/><circle class="cls-2" cx="19.09" cy="51.36" r="0.67"/><circle class="cls-2" cx="22.99" cy="50.8" r="0.67"/><circle class="cls-2" cx="26.25" cy="52.63" r="0.67"/><circle class="cls-2" cx="25.58" cy="55.11" r="0.67"/><circle class="cls-2" cx="29.36" cy="56.77" r="0.67"/><circle class="cls-2" cx="21.84" cy="53.44" r="0.67" transform="translate(-34.74 64.88) rotate(-79.2)"/><circle class="cls-2" cx="22.52" cy="56.77" r="0.67" transform="translate(-37.47 68.25) rotate(-79.2)"/><circle class="cls-2" cx="18.86" cy="54.97" r="0.67"/></svg>