<svg id="Layer_1" data-name="Layer 1" xmlns="http://www.w3.org/2000/svg" viewBox="0 0 94.92 94.47"><defs><style>.cls-1{fill:#c2b8ab;}.cls-2{fill:#f26722;}</style></defs><title>icons</title><circle class="cls-1" cx="49.32" cy="48.86" r="45.61"/><circle class="cls-2" cx="45.53" cy="45.53" r="43.25"/><ellipse class="cls-2" cx="25.05" cy="56.5" rx="7.2" ry="10.91" transform="translate(-34.85 41.28) rotate(-51.83)"/><path d="M28.76,66a14.4,14.4,0,0,1-8.62-3.28,14.88,14.88,0,0,1-5-6.78c-.86-2.59-.59-5,.76-6.68,2.71-3.45,9-3,14.08,1s7,10,4.25,13.46A6.71,6.71,0,0,1,28.76,66Zm-7.42-17.6a5.23,5.23,0,0,0-4.27,1.79,5.52,5.52,0,0,0-.51,5.28,13.37,13.37,0,0,0,4.51,6.07c4.4,3.46,9.77,4,12,1.2h0c2.2-2.8.4-7.89-4-11.35A13,13,0,0,0,21.34,48.43Z"/><path d="M81.59,68.07H9.47a.75.75,0,0,1,0-1.5H81.59a.75.75,0,0,1,0,1.5Z"/><path class="cls-2" d="M55.65,61H12.28l1.18,3.82a2.3,2.3,0,0,0,2.2,1.63H52.35a2.3,2.3,0,0,0,2.21-1.67Z"/><path d="M52.35,67.21H15.66a3,3,0,0,1-2.92-2.15l-1.18-3.82a.75.75,0,0,1,.72-1H55.65a.75.75,0,0,1,.72,1L55.28,65A3.06,3.06,0,0,1,52.35,67.21Zm-39-5.45.88,2.85a1.55,1.55,0,0,0,1.48,1.1H52.35a1.56,1.56,0,0,0,1.49-1.12l.81-2.82Z"/><path d="M53.49,32.25a5.41,5.41,0,1,1,0-10.82.5.5,0,0,1,0,1,4.41,4.41,0,1,0,0,8.82.5.5,0,1,1,0,1Z"/><path d="M56.37,22.29a.5.5,0,0,1,0-1,6.08,6.08,0,1,0,0-12.16.5.5,0,0,1,0-1,7.08,7.08,0,1,1,0,14.16Z"/><path d="M54.61,19.24a.5.5,0,0,1,0-1,3,3,0,1,0,0-6.06.5.5,0,0,1,0-1,4,4,0,1,1,0,8.06Z"/><path d="M56.37,38.52a.5.5,0,0,1,0-1,2.52,2.52,0,1,0,0-5,.5.5,0,1,1,0-1,3.52,3.52,0,1,1,0,7Z"/><rect class="cls-2" x="9.27" y="57.63" width="49.39" height="3.38" rx="1.69" ry="1.69"/><path d="M57,61.76H11a2.44,2.44,0,0,1,0-4.87H57a2.44,2.44,0,0,1,0,4.88ZM11,58.38a.94.94,0,1,0,0,1.88H57a.94.94,0,0,0,0-1.87Z"/><path class="cls-2" d="M38.4,40.42H69.65a0,0,0,0,1,0,0V52.09a12.2,12.2,0,0,1-12.2,12.2H50.6a12.2,12.2,0,0,1-12.2-12.2V40.42A0,0,0,0,1,38.4,40.42Z"/><path d="M57.45,65H50.6a13,13,0,0,1-13-13V40.42a.75.75,0,0,1,.75-.75H69.65a.75.75,0,0,1,.75.75V52.09A13,13,0,0,1,57.45,65ZM39.15,41.17V52.09A11.46,11.46,0,0,0,50.6,63.54h6.85A11.46,11.46,0,0,0,68.9,52.09V41.17Z"/><path class="cls-2" d="M38.4,64.29H69.65a0,0,0,0,1,0,0v0a2.95,2.95,0,0,1-2.95,2.95H41.34a2.95,2.95,0,0,1-2.95-2.95v0a0,0,0,0,1,0,0Z"/><path d="M66.7,68H41.34a3.7,3.7,0,0,1-3.7-3.7.75.75,0,0,1,.75-.75H69.65a.75.75,0,0,1,.75.75A3.7,3.7,0,0,1,66.7,68ZM39.28,65a2.2,2.2,0,0,0,2.07,1.45H66.7A2.2,2.2,0,0,0,68.76,65Z"/><path d="M69.65,48.45H38.4a.75.75,0,0,1-.75-.75V43.36a.75.75,0,0,1,.75-.75H69.65a.75.75,0,0,1,.75.75V47.7A.75.75,0,0,1,69.65,48.45Zm-30.5-1.5H68.9V44.11H39.15Z"/><path d="M69.65,55.82a.75.75,0,0,1,0-1.5,5.88,5.88,0,1,0,0-11.76.75.75,0,0,1,0-1.5,7.38,7.38,0,1,1,0,14.76Z"/><path d="M69.65,53.6a.75.75,0,0,1,0-1.5,3.66,3.66,0,1,0,0-7.32.75.75,0,0,1,0-1.5,5.16,5.16,0,1,1,0,10.32Z"/><circle cx="19.09" cy="51.09" r="0.67"/><circle cx="22.99" cy="50.52" r="0.67"/><circle cx="26.25" cy="52.36" r="0.67"/><circle cx="25.58" cy="54.84" r="0.67"/><circle cx="29.36" cy="56.5" r="0.67"/><circle cx="21.84" cy="53.16" r="0.67" transform="translate(-34.47 64.66) rotate(-79.2)"/><circle cx="22.52" cy="56.5" r="0.67" transform="translate(-37.2 68.03) rotate(-79.2)"/><circle cx="18.86" cy="54.7" r="0.67"/><path d="M45.53,91.06A45.53,45.53,0,1,1,91.06,45.53,45.58,45.58,0,0,1,45.53,91.06ZM45.53,4A41.53,41.53,0,1,0,87.06,45.53,41.58,41.58,0,0,0,45.53,4Z"/></svg>