<svg id="Layer_1" data-name="Layer 1" xmlns="http://www.w3.org/2000/svg" viewBox="0 0 107 118.26"><defs><style>.cls-1{fill:#f89f1b;}.cls-1,.cls-2,.cls-3,.cls-5,.cls-6{stroke:#432c1f;stroke-width:4px;}.cls-1,.cls-2,.cls-5{stroke-miterlimit:10;}.cls-2{fill:#4c6c4c;}.cls-3{fill:none;}.cls-3,.cls-6{stroke-linecap:round;stroke-linejoin:round;}.cls-4{fill:#432c1f;}.cls-5{fill:#c75448;}.cls-6{fill:#fff;}</style></defs><title>owl</title><circle class="cls-1" cx="53.5" cy="53.5" r="51.5"/><path class="cls-2" d="M215,319.94a51.36,51.36,0,0,0,17.17,38.38,61.93,61.93,0,0,0,0-76.76A51.36,51.36,0,0,0,215,319.94Z" transform="translate(-213.03 -266.44)"/><path class="cls-2" d="M318,319.94a51.36,51.36,0,0,1-17.17,38.38,61.93,61.93,0,0,1,0-76.76A51.36,51.36,0,0,1,318,319.94Z" transform="translate(-213.03 -266.44)"/><path class="cls-3" d="M260.17,288a21.93,21.93,0,0,0-15.64-6.53c-7.18,0-18,2.5-23,.5" transform="translate(-213.03 -266.44)"/><path class="cls-3" d="M272.9,288a21.93,21.93,0,0,1,15.64-6.53c7.18,0,18,2.5,23,.5" transform="translate(-213.03 -266.44)"/><polygon class="cls-4" points="53.5 66.59 62.63 50.77 44.37 50.77 53.5 66.59"/><line class="cls-3" x1="37" y1="102.5" x2="37" y2="116.26"/><line class="cls-3" x1="70" y1="102.5" x2="70" y2="116.26"/><path class="cls-5" d="M223.2,294.44l43.17,6.32L307,294.44a11.87,11.87,0,0,0,3.86-.65,51.49,51.49,0,0,0-89.05.57A12,12,0,0,0,223.2,294.44Z" transform="translate(-213.03 -266.44)"/><circle class="cls-6" cx="31.5" cy="37" r="22"/><circle class="cls-6" cx="75.5" cy="37" r="22"/><rect class="cls-4" x="26.5" y="31.5" width="10" height="10" rx="5" ry="5"/><rect class="cls-4" x="70.5" y="31.5" width="10" height="10" rx="5" ry="5"/><line class="cls-3" x1="37" y1="116.26" x2="31" y2="116.26"/><line class="cls-3" x1="70" y1="116.26" x2="76" y2="116.26"/></svg>