<svg id="Layer_1" data-name="Layer 1" xmlns="http://www.w3.org/2000/svg" viewBox="0 0 94.92 94.47"><defs><style>.cls-1{fill:#c2b8ab;}.cls-2{fill:#5b7f5c;}</style></defs><title>icons</title><circle class="cls-1" cx="49.32" cy="48.86" r="45.61"/><circle class="cls-2" cx="45.67" cy="45.98" r="42.08"/><path d="M45.53,46.28a.75.75,0,0,1-.75-.75V15.12a.75.75,0,0,1,1.5,0v30.4A.75.75,0,0,1,45.53,46.28Z"/><path d="M45.53,46.28A.75.75,0,0,1,45,45L66.5,23.5a.75.75,0,0,1,1.06,1.06l-21.5,21.5A.75.75,0,0,1,45.53,46.28Z"/><path d="M49.87,19.28H41.19a.75.75,0,0,1,0-1.5h8.68a.75.75,0,0,1,0,1.5Z"/><path d="M40.38,25.72A2.75,2.75,0,1,1,43.13,23,2.75,2.75,0,0,1,40.38,25.72Zm0-4A1.25,1.25,0,1,0,41.63,23,1.25,1.25,0,0,0,40.38,21.72Z"/><path d="M50.68,25.72A2.75,2.75,0,1,1,53.42,23,2.75,2.75,0,0,1,50.68,25.72Zm0-4A1.25,1.25,0,1,0,51.92,23,1.25,1.25,0,0,0,50.68,21.72Z"/><path d="M39,33.62a.75.75,0,0,1-.27-1.45l13-5.1a.75.75,0,0,1,.54,1.4l-13,5.1A.75.75,0,0,1,39,33.62Z"/><path d="M52.05,33.62a.75.75,0,0,1-.27-.05l-13-5.1a.75.75,0,0,1,.54-1.4l13,5.1a.75.75,0,0,1-.27,1.45Z"/><path d="M45.53,46.28H15.12a.75.75,0,0,1,0-1.5H45.53a.75.75,0,0,1,0,1.5Z"/><path d="M18.53,50.62a.75.75,0,0,1-.75-.75V41.19a.75.75,0,0,1,1.5,0v8.68A.75.75,0,0,1,18.53,50.62Z"/><path d="M23,53.42a2.75,2.75,0,1,1,2.75-2.75A2.75,2.75,0,0,1,23,53.42Zm0-4a1.25,1.25,0,1,0,1.25,1.25A1.25,1.25,0,0,0,23,49.43Z"/><path d="M23,43.13a2.75,2.75,0,1,1,2.75-2.75A2.75,2.75,0,0,1,23,43.13Zm0-4a1.25,1.25,0,1,0,1.25,1.25A1.25,1.25,0,0,0,23,39.13Z"/><path d="M32.88,52.8a.75.75,0,0,1-.7-.48l-5.1-13a.75.75,0,1,1,1.4-.55l5.1,13a.75.75,0,0,1-.7,1Z"/><path d="M27.78,52.8a.75.75,0,0,1-.7-1l5.1-13a.75.75,0,1,1,1.4.55l-5.1,13A.75.75,0,0,1,27.78,52.8Z"/><path d="M45.53,76.68a.75.75,0,0,1-.75-.75V45.53a.75.75,0,0,1,1.5,0V75.93A.75.75,0,0,1,45.53,76.68Z"/><path d="M49.87,73.28H41.19a.75.75,0,1,1,0-1.5h8.68a.75.75,0,0,1,0,1.5Z"/><path d="M50.68,70.84a2.75,2.75,0,1,1,2.75-2.75A2.75,2.75,0,0,1,50.68,70.84Zm0-4a1.25,1.25,0,1,0,1.25,1.25A1.25,1.25,0,0,0,50.68,66.84Z"/><path d="M40.38,70.84a2.75,2.75,0,1,1,2.75-2.75A2.75,2.75,0,0,1,40.38,70.84Zm0-4a1.25,1.25,0,1,0,1.25,1.25A1.25,1.25,0,0,0,40.38,66.84Z"/><path d="M39,64a.75.75,0,0,1-.27-1.45l13-5.1a.75.75,0,0,1,.54,1.4l-13,5.1A.75.75,0,0,1,39,64Z"/><path d="M52.05,64a.75.75,0,0,1-.27-.05l-13-5.1a.75.75,0,0,1,.54-1.4l13,5.1A.75.75,0,0,1,52.05,64Z"/><path d="M75.93,46.28H45.53a.75.75,0,1,1,0-1.5H75.93a.75.75,0,0,1,0,1.5Z"/><path d="M72.53,50.62a.75.75,0,0,1-.75-.75V41.19a.75.75,0,0,1,1.5,0v8.68A.75.75,0,0,1,72.53,50.62Z"/><path d="M68.09,43.13a2.75,2.75,0,1,1,2.75-2.75A2.75,2.75,0,0,1,68.09,43.13Zm0-4a1.25,1.25,0,1,0,1.25,1.25A1.25,1.25,0,0,0,68.09,39.13Z"/><path d="M68.09,53.42a2.75,2.75,0,1,1,2.75-2.75A2.75,2.75,0,0,1,68.09,53.42Zm0-4a1.25,1.25,0,1,0,1.25,1.25A1.25,1.25,0,0,0,68.09,49.43Z"/><path d="M63.28,52.8a.75.75,0,0,1-.7-.48l-5.1-13a.75.75,0,1,1,1.4-.55l5.1,13a.75.75,0,0,1-.7,1Z"/><path d="M58.18,52.8a.75.75,0,0,1-.7-1l5.1-13a.75.75,0,1,1,1.4.55l-5.1,13A.75.75,0,0,1,58.18,52.8Z"/><path d="M54.69,43.34a.75.75,0,0,1-.53-.22L47.94,36.9A.75.75,0,0,1,49,35.84l6.22,6.22a.75.75,0,0,1-.53,1.28Z"/><circle class="cls-2" cx="67.4" cy="23.66" r="2"/><path d="M67.4,26.4a2.75,2.75,0,1,1,2.75-2.75A2.75,2.75,0,0,1,67.4,26.4Zm0-4a1.25,1.25,0,1,0,1.25,1.25A1.25,1.25,0,0,0,67.4,22.41Z"/><circle class="cls-2" cx="60.73" cy="30.33" r="3.94"/><path d="M60.73,35a4.69,4.69,0,1,1,4.69-4.69A4.69,4.69,0,0,1,60.73,35Zm0-7.88a3.19,3.19,0,1,0,3.19,3.19A3.19,3.19,0,0,0,60.73,27.14Z"/><path d="M45.53,46.28a.75.75,0,0,1-.53-.22L23.5,24.56a.75.75,0,0,1,1.06-1.06L46.06,45a.75.75,0,0,1-.53,1.28Z"/><path d="M36.37,43.34a.75.75,0,0,1-.53-1.28l6.22-6.22a.75.75,0,1,1,1.06,1.06L36.9,43.12A.75.75,0,0,1,36.37,43.34Z"/><circle class="cls-2" cx="23.66" cy="23.66" r="2"/><path d="M23.66,26.4a2.75,2.75,0,1,1,2.75-2.75A2.75,2.75,0,0,1,23.66,26.4Zm0-4a1.25,1.25,0,1,0,1.25,1.25A1.25,1.25,0,0,0,23.66,22.41Z"/><circle class="cls-2" cx="30.33" cy="30.33" r="3.94"/><path d="M30.33,35A4.69,4.69,0,1,1,35,30.33,4.69,4.69,0,0,1,30.33,35Zm0-7.88a3.19,3.19,0,1,0,3.19,3.19A3.19,3.19,0,0,0,30.33,27.14Z"/><path d="M24,67.78a.75.75,0,0,1-.53-1.28L45,45a.75.75,0,0,1,1.06,1.06l-21.5,21.5A.75.75,0,0,1,24,67.78Z"/><path d="M42.59,55.44a.75.75,0,0,1-.53-.22L35.84,49a.75.75,0,0,1,1.06-1.06l6.22,6.22a.75.75,0,0,1-.53,1.28Z"/><circle class="cls-2" cx="23.66" cy="67.4" r="2"/><path d="M23.66,70.15a2.75,2.75,0,1,1,2.75-2.75A2.75,2.75,0,0,1,23.66,70.15Zm0-4a1.25,1.25,0,1,0,1.25,1.25A1.25,1.25,0,0,0,23.66,66.15Z"/><circle class="cls-2" cx="30.33" cy="60.73" r="3.94"/><path d="M30.33,65.42A4.69,4.69,0,1,1,35,60.73,4.69,4.69,0,0,1,30.33,65.42Zm0-7.88a3.19,3.19,0,1,0,3.19,3.19A3.19,3.19,0,0,0,30.33,57.54Z"/><path d="M67,67.78a.75.75,0,0,1-.53-.22L45,46.06A.75.75,0,0,1,46.06,45l21.5,21.5A.75.75,0,0,1,67,67.78Z"/><path d="M48.47,55.44a.75.75,0,0,1-.53-1.28l6.22-6.22A.75.75,0,0,1,55.22,49L49,55.22A.75.75,0,0,1,48.47,55.44Z"/><circle class="cls-2" cx="67.4" cy="67.4" r="2"/><path d="M67.4,70.15a2.75,2.75,0,1,1,2.75-2.75A2.75,2.75,0,0,1,67.4,70.15Zm0-4a1.25,1.25,0,1,0,1.25,1.25A1.25,1.25,0,0,0,67.4,66.15Z"/><circle class="cls-2" cx="60.73" cy="60.73" r="3.94"/><path d="M60.73,65.42a4.69,4.69,0,1,1,4.69-4.69A4.69,4.69,0,0,1,60.73,65.42Zm0-7.88a3.19,3.19,0,1,0,3.19,3.19A3.19,3.19,0,0,0,60.73,57.54Z"/><rect class="cls-2" x="41.67" y="41.66" width="7.73" height="7.73"/><path d="M49.39,50.14H41.67a.75.75,0,0,1-.75-.75V41.66a.75.75,0,0,1,.75-.75h7.73a.75.75,0,0,1,.75.75v7.73A.75.75,0,0,1,49.39,50.14Zm-7-1.5h6.23V42.41H42.42Z"/><path d="M45.53,91.06A45.53,45.53,0,1,1,91.06,45.53,45.58,45.58,0,0,1,45.53,91.06ZM45.53,4A41.53,41.53,0,1,0,87.06,45.53,41.58,41.58,0,0,0,45.53,4Z"/></svg>