<svg id="Layer_1" data-name="Layer 1" xmlns="http://www.w3.org/2000/svg" viewBox="0 0 91.06 101.81"><defs><style>.cls-1{fill:#f89f1f;}.cls-2{fill:#010101;}</style></defs><title>icons</title><circle class="cls-1" cx="45.53" cy="45.2" r="42.83"/><path class="cls-2" d="M91.06,45.53A45.53,45.53,0,1,0,33.34,89.39l12.19,12.42L57.72,89.39A45.6,45.6,0,0,0,91.06,45.53ZM45.53,87.06A41.53,41.53,0,1,1,87.06,45.53,41.58,41.58,0,0,1,45.53,87.06Z"/><path class="cls-2" d="M55.7,17.06H35.36a.75.75,0,0,1,0-1.5H55.7a.75.75,0,1,1,0,1.5Z"/><path class="cls-2" d="M54.3,17.06H36.76a.75.75,0,0,1-.61-1.18,11.49,11.49,0,0,1,18.76,0,.75.75,0,0,1-.61,1.18Zm-15.94-1.5H52.7a10,10,0,0,0-14.34,0Z"/><path class="cls-2" d="M56.66,20.82H34.4a.75.75,0,0,1,0-1.5H56.66a.75.75,0,0,1,0,1.5Z"/><path class="cls-2" d="M56.66,37.57H34.4a.75.75,0,0,1,0-1.5H56.66a.75.75,0,0,1,0,1.5Z"/><path class="cls-2" d="M56.66,54.33H34.4a.75.75,0,0,1,0-1.5H56.66a.75.75,0,0,1,0,1.5Z"/><path class="cls-2" d="M56.66,71.08H34.4a.75.75,0,0,1,0-1.5H56.66a.75.75,0,0,1,0,1.5Z"/><path class="cls-2" d="M54.13,74.22H36.93a.75.75,0,0,1,0-1.5h17.2a.75.75,0,1,1,0,1.5Z"/><path class="cls-2" d="M52.62,77.35H38.44a.75.75,0,0,1,0-1.5H52.62a.75.75,0,0,1,0,1.5Z"/><path class="cls-2" d="M54.78,71.08H36.27a.75.75,0,0,1-.75-.75V20.07a.75.75,0,0,1,.75-.75H54.78a.75.75,0,0,1,.75.75V70.33A.75.75,0,0,1,54.78,71.08ZM37,69.58H54V20.82H37Z"/><rect class="cls-2" x="41.31" y="78.68" width="1.5" height="12.5"/><rect class="cls-2" x="44.78" y="78.68" width="1.5" height="12.5"/><rect class="cls-2" x="48.25" y="78.68" width="1.5" height="12.5"/><path class="cls-2" d="M35.85,32.15a3.19,3.19,0,0,1-2.79-1.83c-.29-.52-.83-.71-1.68-1-1.7-.54-4-1.27-4-6.5a.75.75,0,0,1,.75-.75h8.16a.75.75,0,0,1,.75.75v8.51a.75.75,0,0,1-.53.72A2.25,2.25,0,0,1,35.85,32.15Zm-7-8.56c.17,3.44,1.53,3.87,3,4.32a3.89,3.89,0,0,1,2.54,1.68,1.9,1.9,0,0,0,1.15,1v-7Z"/><path class="cls-2" d="M55.2,32.15a2.25,2.25,0,0,1-.64-.09.75.75,0,0,1-.53-.72V22.83a.75.75,0,0,1,.75-.75h8.16a.75.75,0,0,1,.75.75c0,5.23-2.33,6-4,6.5-.85.27-1.39.46-1.68,1A3.19,3.19,0,0,1,55.2,32.15Zm.33-8.56v7a1.9,1.9,0,0,0,1.15-1,3.89,3.89,0,0,1,2.54-1.68c1.43-.45,2.79-.88,3-4.32Z"/><path class="cls-2" d="M35.85,49.1a3.19,3.19,0,0,1-2.79-1.83c-.29-.52-.83-.71-1.68-1-1.7-.54-4-1.27-4-6.5a.75.75,0,0,1,.75-.75h8.16a.75.75,0,0,1,.75.75v8.51a.75.75,0,0,1-.53.72A2.25,2.25,0,0,1,35.85,49.1Zm-7-8.56c.17,3.44,1.53,3.87,3,4.32a3.89,3.89,0,0,1,2.54,1.68,1.9,1.9,0,0,0,1.15,1v-7Z"/><path class="cls-2" d="M55.2,49.1a2.25,2.25,0,0,1-.64-.09.75.75,0,0,1-.53-.72V39.79a.75.75,0,0,1,.75-.75h8.16a.75.75,0,0,1,.75.75c0,5.23-2.33,6-4,6.5-.85.27-1.39.46-1.68,1A3.19,3.19,0,0,1,55.2,49.1Zm.33-8.56v7a1.9,1.9,0,0,0,1.15-1,3.89,3.89,0,0,1,2.54-1.68c1.43-.45,2.79-.88,3-4.32Z"/><path class="cls-2" d="M35.85,65.85A3.19,3.19,0,0,1,33.07,64c-.29-.52-.83-.71-1.68-1-1.7-.54-4-1.27-4-6.5a.75.75,0,0,1,.75-.75h8.16a.75.75,0,0,1,.75.75V65a.75.75,0,0,1-.53.72A2.25,2.25,0,0,1,35.85,65.85Zm-7-8.56c.17,3.44,1.53,3.87,3,4.32a3.89,3.89,0,0,1,2.54,1.68,1.9,1.9,0,0,0,1.15,1v-7Z"/><path class="cls-2" d="M55.2,65.85a2.25,2.25,0,0,1-.64-.09A.75.75,0,0,1,54,65V56.54a.75.75,0,0,1,.75-.75h8.16a.75.75,0,0,1,.75.75c0,5.23-2.33,6-4,6.5-.85.27-1.39.46-1.68,1A3.19,3.19,0,0,1,55.2,65.85Zm.33-8.56v7a1.9,1.9,0,0,0,1.15-1,3.89,3.89,0,0,1,2.54-1.68c1.43-.45,2.79-.88,3-4.32Z"/><path class="cls-2" d="M45.53,34.42a6.17,6.17,0,1,1,6.17-6.17A6.17,6.17,0,0,1,45.53,34.42Zm0-10.83a4.67,4.67,0,1,0,4.67,4.67A4.67,4.67,0,0,0,45.53,23.58Z"/><path class="cls-2" d="M45.53,51.37A6.17,6.17,0,1,1,51.7,45.2,6.17,6.17,0,0,1,45.53,51.37Zm0-10.83A4.67,4.67,0,1,0,50.2,45.2,4.67,4.67,0,0,0,45.53,40.54Z"/><path class="cls-2" d="M45.53,68.12A6.17,6.17,0,1,1,51.7,62,6.17,6.17,0,0,1,45.53,68.12Zm0-10.83A4.67,4.67,0,1,0,50.2,62,4.67,4.67,0,0,0,45.53,57.29Z"/></svg>