<svg id="Layer_1" data-name="Layer 1" xmlns="http://www.w3.org/2000/svg" viewBox="0 0 94.92 94.47"><defs><style>.cls-1{fill:#c2b8ab;}.cls-2{fill:#f9a01b;}</style></defs><title>icons</title><circle class="cls-1" cx="49.32" cy="48.86" r="45.61"/><circle class="cls-2" cx="45.53" cy="44.88" r="42.83"/><path d="M55.7,16.74H35.36a.75.75,0,1,1,0-1.5H55.7a.75.75,0,0,1,0,1.5Z"/><path d="M54.3,16.74H36.76a.75.75,0,0,1-.61-1.18,11.49,11.49,0,0,1,18.76,0,.75.75,0,0,1-.61,1.18Zm-15.94-1.5H52.7a10,10,0,0,0-14.34,0Z"/><path d="M56.66,20.5H34.4a.75.75,0,0,1,0-1.5H56.66a.75.75,0,0,1,0,1.5Z"/><path d="M56.66,37.25H34.4a.75.75,0,1,1,0-1.5H56.66a.75.75,0,0,1,0,1.5Z"/><path d="M56.66,54H34.4a.75.75,0,0,1,0-1.5H56.66a.75.75,0,0,1,0,1.5Z"/><path d="M56.66,70.76H34.4a.75.75,0,1,1,0-1.5H56.66a.75.75,0,0,1,0,1.5Z"/><path d="M54.13,73.9H36.93a.75.75,0,1,1,0-1.5h17.2a.75.75,0,0,1,0,1.5Z"/><path d="M52.62,77H38.44a.75.75,0,0,1,0-1.5H52.62a.75.75,0,0,1,0,1.5Z"/><path d="M54.78,70.76H36.27a.75.75,0,0,1-.75-.75V19.75a.75.75,0,0,1,.75-.75H54.78a.75.75,0,0,1,.75.75V70A.75.75,0,0,1,54.78,70.76ZM37,69.26H54V20.5H37Z"/><rect x="41.31" y="78.35" width="1.5" height="12.5"/><rect x="44.78" y="78.35" width="1.5" height="12.5"/><rect x="48.25" y="78.35" width="1.5" height="12.5"/><path d="M35.85,31.82A3.19,3.19,0,0,1,33.07,30c-.29-.52-.83-.71-1.68-1-1.7-.54-4-1.27-4-6.5a.75.75,0,0,1,.75-.75h8.16a.75.75,0,0,1,.75.75V31a.75.75,0,0,1-.53.72A2.25,2.25,0,0,1,35.85,31.82Zm-7-8.56c.17,3.44,1.53,3.87,3,4.32a3.89,3.89,0,0,1,2.54,1.68,1.9,1.9,0,0,0,1.15,1v-7Z"/><path d="M55.2,31.82a2.25,2.25,0,0,1-.64-.09A.75.75,0,0,1,54,31V22.51a.75.75,0,0,1,.75-.75h8.16a.75.75,0,0,1,.75.75c0,5.23-2.33,6-4,6.5-.85.27-1.39.46-1.68,1A3.19,3.19,0,0,1,55.2,31.82Zm.33-8.56v7a1.9,1.9,0,0,0,1.15-1,3.89,3.89,0,0,1,2.54-1.68c1.43-.45,2.79-.88,3-4.32Z"/><path d="M35.85,48.77a3.19,3.19,0,0,1-2.79-1.83c-.29-.52-.83-.71-1.68-1-1.7-.54-4-1.27-4-6.5a.75.75,0,0,1,.75-.75h8.16a.75.75,0,0,1,.75.75V48a.75.75,0,0,1-.53.72A2.25,2.25,0,0,1,35.85,48.77Zm-7-8.56c.17,3.44,1.53,3.87,3,4.32a3.89,3.89,0,0,1,2.54,1.68,1.9,1.9,0,0,0,1.15,1v-7Z"/><path d="M55.2,48.77a2.25,2.25,0,0,1-.64-.09A.75.75,0,0,1,54,48V39.46a.75.75,0,0,1,.75-.75h8.16a.75.75,0,0,1,.75.75c0,5.23-2.33,6-4,6.5-.85.27-1.39.46-1.68,1A3.19,3.19,0,0,1,55.2,48.77Zm.33-8.56v7a1.9,1.9,0,0,0,1.15-1,3.89,3.89,0,0,1,2.54-1.68c1.43-.45,2.79-.88,3-4.32Z"/><path d="M35.85,65.53a3.19,3.19,0,0,1-2.79-1.83c-.29-.52-.83-.71-1.68-1-1.7-.54-4-1.27-4-6.5a.75.75,0,0,1,.75-.75h8.16a.75.75,0,0,1,.75.75v8.51a.75.75,0,0,1-.53.72A2.25,2.25,0,0,1,35.85,65.53Zm-7-8.56c.17,3.44,1.53,3.87,3,4.32A3.89,3.89,0,0,1,34.38,63a1.9,1.9,0,0,0,1.15,1V57Z"/><path d="M55.2,65.53a2.25,2.25,0,0,1-.64-.09.75.75,0,0,1-.53-.72V56.22a.75.75,0,0,1,.75-.75h8.16a.75.75,0,0,1,.75.75c0,5.23-2.33,6-4,6.5-.85.27-1.39.46-1.68,1A3.19,3.19,0,0,1,55.2,65.53ZM55.53,57v7a1.9,1.9,0,0,0,1.15-1,3.89,3.89,0,0,1,2.54-1.68c1.43-.45,2.79-.88,3-4.32Z"/><path d="M45.53,34.09a6.17,6.17,0,1,1,6.17-6.17A6.17,6.17,0,0,1,45.53,34.09Zm0-10.83a4.67,4.67,0,1,0,4.67,4.67A4.67,4.67,0,0,0,45.53,23.26Z"/><path d="M45.53,51a6.17,6.17,0,1,1,6.17-6.17A6.17,6.17,0,0,1,45.53,51Zm0-10.83a4.67,4.67,0,1,0,4.67,4.67A4.67,4.67,0,0,0,45.53,40.21Z"/><path d="M45.53,67.8a6.17,6.17,0,1,1,6.17-6.17A6.17,6.17,0,0,1,45.53,67.8Zm0-10.83a4.67,4.67,0,1,0,4.67,4.67A4.67,4.67,0,0,0,45.53,57Z"/><path d="M45.53,91.06A45.53,45.53,0,1,1,91.06,45.53,45.58,45.58,0,0,1,45.53,91.06ZM45.53,4A41.53,41.53,0,1,0,87.06,45.53,41.58,41.58,0,0,0,45.53,4Z"/></svg>