<svg id="Layer_1" data-name="Layer 1" xmlns="http://www.w3.org/2000/svg" viewBox="0 0 91.06 101.81"><defs><style>.cls-1{fill:#26675b;}.cls-2{fill:#010101;}.cls-3,.cls-4{fill:none;stroke:#010101;stroke-linecap:round;stroke-linejoin:round;}.cls-3{stroke-width:1.5px;}</style></defs><title>icons</title><circle class="cls-1" cx="46.07" cy="45.44" r="42.36"/><path class="cls-2" d="M91.06,45.53A45.53,45.53,0,1,0,33.34,89.39l12.19,12.42L57.72,89.39A45.6,45.6,0,0,0,91.06,45.53ZM45.53,87.06A41.53,41.53,0,1,1,87.06,45.53,41.58,41.58,0,0,1,45.53,87.06Z"/><rect class="cls-3" x="52.24" y="17.01" width="8.63" height="48.45"/><line class="cls-3" x1="7.1" y1="65.46" x2="83.96" y2="65.46"/><line class="cls-3" x1="60.86" y1="28.41" x2="67.23" y2="22.04"/><line class="cls-3" x1="52.24" y1="38.58" x2="41.53" y2="27.87"/><line class="cls-3" x1="60.86" y1="48.08" x2="72.53" y2="36.41"/><line class="cls-3" x1="51.7" y1="57.2" x2="40.45" y2="45.95"/><path class="cls-3" d="M42.8,25.45C44.46,27.1,44,30.29,44,30.29s-3.19.5-4.85-1.15a10.45,10.45,0,0,1-2.69-6.38A10.79,10.79,0,0,1,42.8,25.45Z"/><line class="cls-3" x1="19.29" y1="56.01" x2="14.67" y2="51.38"/><path class="cls-3" d="M15.94,49c1.66,1.66,1.15,4.85,1.15,4.85s-3.19.5-4.85-1.15a10.45,10.45,0,0,1-2.69-6.38A10.79,10.79,0,0,1,15.94,49Z"/><path class="cls-3" d="M41.54,43.35C43.2,45,42.69,48.2,42.69,48.2s-3.19.5-4.85-1.15a10.45,10.45,0,0,1-2.69-6.38A10.79,10.79,0,0,1,41.54,43.35Z"/><path class="cls-3" d="M39.28,50.64c2.34,0,4.24,2.61,4.24,2.61s-1.9,2.61-4.24,2.61a10.45,10.45,0,0,1-6.42-2.61A10.79,10.79,0,0,1,39.28,50.64Z"/><path class="cls-3" d="M50.36,45.1c0,2.34-2.61,4.24-2.61,4.24s-2.61-1.9-2.61-4.24a10.45,10.45,0,0,1,2.61-6.42A10.79,10.79,0,0,1,50.36,45.1Z"/><path class="cls-3" d="M65.09,20.36c-1.66,1.66-1.15,4.85-1.15,4.85s3.19.5,4.85-1.15a10.45,10.45,0,0,0,2.69-6.38A10.79,10.79,0,0,0,65.09,20.36Z"/><path class="cls-3" d="M70.83,34.42c-1.66,1.66-1.15,4.85-1.15,4.85s3.19.5,4.85-1.15a10.45,10.45,0,0,0,2.69-6.38A10.79,10.79,0,0,0,70.83,34.42Z"/><line class="cls-3" x1="47.74" y1="53.25" x2="39.64" y2="53.25"/><path class="cls-3" d="M73.74,46.28c-2.34,0-4.24-2.61-4.24-2.61s1.9-2.61,4.24-2.61a10.45,10.45,0,0,1,6.42,2.61A10.79,10.79,0,0,1,73.74,46.28Z"/><line class="cls-3" x1="65.27" y1="43.67" x2="73.38" y2="43.67"/><path class="cls-3" d="M67.89,35.2c0,2.34-2.61,4.24-2.61,4.24s-2.61-1.9-2.61-4.24a10.45,10.45,0,0,1,2.61-6.42A10.79,10.79,0,0,1,67.89,35.2Z"/><line class="cls-3" x1="65.27" y1="43.67" x2="65.27" y2="35.56"/><line class="cls-3" x1="47.74" y1="45.44" x2="47.74" y2="53.25"/><line class="cls-4" x1="54.66" y1="17.01" x2="54.66" y2="37.58"/><line class="cls-4" x1="56.83" y1="26.56" x2="56.83" y2="48.27"/><line class="cls-4" x1="54.16" y1="41.06" x2="54.16" y2="55.24"/><line class="cls-4" x1="56.83" y1="52.1" x2="56.83" y2="61.66"/><line class="cls-4" x1="54.66" y1="59.26" x2="54.66" y2="65.46"/><line class="cls-4" x1="58.66" y1="17.67" x2="58.66" y2="29.58"/><rect class="cls-3" x="17.51" y="51.37" width="8.63" height="18.29" transform="translate(-38.69 82.34) rotate(-90)"/><line class="cls-4" x1="12.68" y1="62.41" x2="29.01" y2="62.41"/><line class="cls-4" x1="20.26" y1="60.24" x2="30.97" y2="60.24"/><line class="cls-4" x1="13.21" y1="58.41" x2="22.66" y2="58.41"/><line class="cls-4" x1="58.94" y1="40.66" x2="58.94" y2="60.52"/><line class="cls-4" x1="58.94" y1="62.91" x2="58.94" y2="65.29"/></svg>