<svg id="Layer_1" data-name="Layer 1" xmlns="http://www.w3.org/2000/svg" viewBox="0 0 94.92 94.47"><defs><style>.cls-1{fill:#c2b8ab;}.cls-2{fill:#c85448;}.cls-3{fill:#231f20;}</style></defs><title>icons</title><circle class="cls-1" cx="49.32" cy="48.86" r="45.61"/><circle class="cls-2" cx="45.42" cy="45.87" r="42.7"/><path d="M82.64,65.65H5.42a.75.75,0,0,1,0-1.5H82.64a.75.75,0,0,1,0,1.5Z"/><path d="M38.17,65.52H21.82a5.18,5.18,0,0,1-5.17-5.17V31.71A.75.75,0,0,1,17.4,31H42.59a.75.75,0,0,1,.75.75V60.35A5.18,5.18,0,0,1,38.17,65.52Zm-20-33.06V60.35A3.67,3.67,0,0,0,21.82,64H38.17a3.67,3.67,0,0,0,3.67-3.67V32.46Z"/><path d="M45.63,32.46H14.35a.75.75,0,1,1,0-1.5H45.63a.75.75,0,0,1,0,1.5Z"/><path d="M44,32.46H16a.75.75,0,0,1-.75-.75V28.53a.75.75,0,0,1,.75-.75H44a.75.75,0,0,1,.75.75v3.18A.75.75,0,0,1,44,32.46ZM16.77,31H43.21V29.28H16.77Z"/><path d="M34.81,29.28H25.18a.75.75,0,0,1-.75-.75,3.88,3.88,0,0,1,3.87-3.87h3.38a3.88,3.88,0,0,1,3.87,3.87A.75.75,0,0,1,34.81,29.28Zm-8.75-1.5h7.88a2.38,2.38,0,0,0-2.25-1.62H28.3A2.38,2.38,0,0,0,26.05,27.78Z"/><path d="M30.26,59.12a.75.75,0,0,1-.75-.75V36.62a.75.75,0,0,1,1.5,0V58.37A.75.75,0,0,1,30.26,59.12Z"/><path d="M22.59,59.12a.75.75,0,0,1-.75-.75V36.62a.75.75,0,0,1,1.5,0V58.37A.75.75,0,0,1,22.59,59.12Z"/><path d="M37.94,59.12a.75.75,0,0,1-.75-.75V36.62a.75.75,0,0,1,1.5,0V58.37A.75.75,0,0,1,37.94,59.12Z"/><path class="cls-2" d="M37.45,35.27H68.39a0,0,0,0,1,0,0V52.75a4.47,4.47,0,0,1-4.47,4.47H57.25A19.81,19.81,0,0,1,37.45,37.41V35.27A0,0,0,0,1,37.45,35.27Z" transform="translate(-0.24 0.28) rotate(-0.3)"/><path class="cls-3" d="M57.2,57.95A20.56,20.56,0,0,1,36.65,37.5V35.36a.75.75,0,0,1,.75-.75l30.94-.16a.74.74,0,0,1,.75.75l.09,17.48A5.23,5.23,0,0,1,64,57.91l-6.67,0ZM38.14,36.1v1.39a19.06,19.06,0,0,0,19.05,19h.1l6.67,0h0a3.72,3.72,0,0,0,3.7-3.74l-.09-16.73Z"/><circle class="cls-2" cx="38.96" cy="57.6" r="6.57" transform="matrix(1, -0.01, 0.01, 1, -0.3, 0.2)"/><path class="cls-3" d="M39,64.92a7.32,7.32,0,0,1,0-14.64h0a7.32,7.32,0,0,1,7.32,7.28h0A7.32,7.32,0,0,1,39,64.92Zm0-13.14h0a5.82,5.82,0,1,0,5.85,5.79h0A5.82,5.82,0,0,0,39,51.78Z"/><circle class="cls-2" cx="38.96" cy="57.6" r="4.3" transform="translate(-0.3 0.2) rotate(-0.3)"/><path class="cls-3" d="M39,62.65a5.05,5.05,0,0,1,0-10.1h0a5.05,5.05,0,0,1,5,5h0a5.05,5.05,0,0,1-5,5.08ZM39,54h0a3.55,3.55,0,0,0,0,7.1h0a3.55,3.55,0,0,0,3.53-3.57h0A3.55,3.55,0,0,0,39,54Z"/><line class="cls-2" x1="34.54" y1="35.37" x2="68.33" y2="35.19"/><path class="cls-3" d="M34.54,36.12a.75.75,0,0,1,0-1.5l33.79-.18a.74.74,0,0,1,.75.75.75.75,0,0,1-.75.75l-33.79.18Z"/><path class="cls-2" d="M75.55,38.34h3.91a1.26,1.26,0,0,1,1.26,1.26v0a1.26,1.26,0,0,1-1.26,1.26H75.55a0,0,0,0,1,0,0V38.34A0,0,0,0,1,75.55,38.34Z" transform="translate(-0.21 0.41) rotate(-0.3)"/><path class="cls-3" d="M75.56,41.62a.75.75,0,0,1-.75-.75V38.36a.75.75,0,0,1,.75-.75l3.91,0h0a2,2,0,0,1,0,4l-3.91,0Zm.74-2.52v1l3.16,0a.51.51,0,0,0,0-1h0Z"/><polygon class="cls-2" points="65.56 33.41 62.76 31.51 58.21 32.05 54.24 29.36 49.72 27.8 45.14 27.42 41.35 28.77 40.64 31.61 38.97 32.29 39.64 35.35 66.71 35.21 65.56 33.41"/><path class="cls-3" d="M39.64,36.1a.75.75,0,0,1-.73-.59l-.67-3.06a.75.75,0,0,1,.45-.86L40,31.06l.62-2.47a.75.75,0,0,1,.47-.52l3.79-1.36a.76.76,0,0,1,.32,0l4.57.38.18,0,4.53,1.56.18.09,3.74,2.53,4.27-.51a.76.76,0,0,1,.51.12l2.8,1.9a.74.74,0,0,1,.21.22l1.16,1.81A.75.75,0,0,1,66.72,36l-27.07.14Zm.19-3.36.41,1.85,25.1-.13L65,33.94l-2.44-1.65-4.27.51a.75.75,0,0,1-.51-.12L53.91,30l-4.35-1.5-4.32-.36L42,29.34l-.62,2.45a.75.75,0,0,1-.44.51Z"/><path class="cls-3" d="M59.61,64.24a3,3,0,0,1-3-3V60.3a1.84,1.84,0,0,0-1.84-1.83h0l-26,.14a.75.75,0,1,1,0-1.5l26-.14a3.33,3.33,0,0,1,3.35,3.32v.92a1.53,1.53,0,0,0,.46,1.08,1.45,1.45,0,0,0,1.09.44l3.32,0a7.81,7.81,0,0,0,7.77-7.86l-.06-11.06a4.92,4.92,0,0,1,4.89-4.94h0a.75.75,0,0,1,0,1.5,3.42,3.42,0,0,0-3.4,3.43l.06,11.06a9.32,9.32,0,0,1-9.27,9.36l-3.32,0Z"/><path d="M45.53,91.06A45.53,45.53,0,1,1,91.06,45.53,45.58,45.58,0,0,1,45.53,91.06ZM45.53,4A41.53,41.53,0,1,0,87.06,45.53,41.58,41.58,0,0,0,45.53,4Z"/></svg>