<svg id="Layer_1" data-name="Layer 1" xmlns="http://www.w3.org/2000/svg" viewBox="0 0 91.06 101.81"><defs><style>.cls-1{fill:#5b7f5c;}.cls-2{fill:#010101;}.cls-3{fill:none;}.cls-3,.cls-4{stroke:#010101;stroke-linecap:round;stroke-linejoin:round;stroke-width:1.5px;}.cls-4{fill:#5b7f5d;}</style></defs><title>icons</title><circle class="cls-1" cx="45.53" cy="45.75" r="42.08"/><path class="cls-2" d="M91.06,45.53A45.53,45.53,0,1,0,33.34,89.39l12.19,12.42L57.72,89.39A45.6,45.6,0,0,0,91.06,45.53ZM45.53,87.06A41.53,41.53,0,1,1,87.06,45.53,41.58,41.58,0,0,1,45.53,87.06Z"/><line class="cls-3" x1="45.24" y1="44.86" x2="45.24" y2="14.45"/><line class="cls-3" x1="45.24" y1="44.86" x2="66.74" y2="23.36"/><line class="cls-3" x1="40.9" y1="17.85" x2="49.58" y2="17.85"/><circle class="cls-3" cx="40.09" cy="22.29" r="2"/><circle class="cls-3" cx="50.39" cy="22.29" r="2"/><line class="cls-3" x1="38.72" y1="32.2" x2="51.77" y2="27.11"/><line class="cls-3" x1="51.77" y1="32.2" x2="38.72" y2="27.11"/><line class="cls-3" x1="45.24" y1="44.86" x2="14.84" y2="44.86"/><line class="cls-3" x1="18.24" y1="49.2" x2="18.24" y2="40.52"/><circle class="cls-3" cx="22.68" cy="50" r="2"/><circle class="cls-3" cx="22.68" cy="39.71" r="2"/><line class="cls-3" x1="32.59" y1="51.38" x2="27.49" y2="38.33"/><line class="cls-3" x1="32.59" y1="38.33" x2="27.49" y2="51.38"/><line class="cls-3" x1="45.24" y1="44.86" x2="45.24" y2="75.26"/><line class="cls-3" x1="49.58" y1="71.86" x2="40.9" y2="71.86"/><circle class="cls-3" cx="50.39" cy="67.42" r="2"/><circle class="cls-3" cx="40.09" cy="67.42" r="2"/><line class="cls-3" x1="51.77" y1="57.51" x2="38.72" y2="62.61"/><line class="cls-3" x1="38.72" y1="57.51" x2="51.77" y2="62.61"/><line class="cls-3" x1="45.24" y1="44.86" x2="75.65" y2="44.86"/><line class="cls-3" x1="72.24" y1="40.52" x2="72.24" y2="49.2"/><circle class="cls-3" cx="67.8" cy="39.71" r="2"/><circle class="cls-3" cx="67.8" cy="50" r="2"/><line class="cls-3" x1="57.9" y1="38.33" x2="62.99" y2="51.38"/><line class="cls-3" x1="57.9" y1="51.38" x2="62.99" y2="38.33"/><line class="cls-3" x1="48.18" y1="35.69" x2="54.4" y2="41.92"/><circle class="cls-4" cx="67.11" cy="22.98" r="2"/><circle class="cls-4" cx="60.44" cy="29.65" r="3.94"/><line class="cls-3" x1="45.24" y1="44.86" x2="23.74" y2="23.36"/><line class="cls-3" x1="36.08" y1="41.92" x2="42.3" y2="35.69"/><circle class="cls-4" cx="23.37" cy="22.98" r="2"/><circle class="cls-4" cx="30.04" cy="29.65" r="3.94"/><line class="cls-3" x1="45.24" y1="44.86" x2="23.74" y2="66.36"/><line class="cls-3" x1="42.3" y1="54.02" x2="36.08" y2="47.79"/><circle class="cls-4" cx="23.37" cy="66.73" r="2"/><circle class="cls-4" cx="30.04" cy="60.06" r="3.94"/><line class="cls-3" x1="45.24" y1="44.86" x2="66.74" y2="66.36"/><line class="cls-3" x1="54.4" y1="47.79" x2="48.18" y2="54.02"/><circle class="cls-4" cx="67.11" cy="66.73" r="2"/><circle class="cls-4" cx="60.44" cy="60.06" r="3.94"/><rect class="cls-4" x="41.38" y="40.99" width="7.73" height="7.73"/></svg>